<svg width="256" height="24" viewBox="0 0 256 24" fill="none" xmlns="http://www.w3.org/2000/svg">
<g clip-path="url(#clip0_231_23625)">
<rect width="44" height="24" rx="12" fill="#7F56D9"/>
<g filter="url(#filter0_dd_231_23625)">
<circle cx="32" cy="12" r="10" fill="white"/>
</g>
</g>
<path d="M58.2614 18H56.3977L60.5852 6.36364H62.6136L66.8011 18H64.9375L61.6477 8.47727H61.5568L58.2614 18ZM58.5739 13.4432H64.6193V14.9205H58.5739V13.4432ZM70.044 12.8182V18H68.3452V9.27273H69.9759V10.6932H70.0838C70.2846 10.2311 70.599 9.85985 71.027 9.57955C71.4588 9.29924 72.0024 9.15909 72.6577 9.15909C73.2524 9.15909 73.7732 9.28409 74.2202 9.53409C74.6671 9.7803 75.0137 10.1477 75.2599 10.6364C75.5062 11.125 75.6293 11.7292 75.6293 12.4489V18H73.9304V12.6534C73.9304 12.0208 73.7656 11.5265 73.4361 11.1705C73.1065 10.8106 72.6539 10.6307 72.0781 10.6307C71.6842 10.6307 71.3338 10.7159 71.027 10.8864C70.724 11.0568 70.4834 11.3068 70.3054 11.6364C70.1312 11.9621 70.044 12.3561 70.044 12.8182ZM79.6065 12.8182V18H77.9077V9.27273H79.5384V10.6932H79.6463C79.8471 10.2311 80.1615 9.85985 80.5895 9.57955C81.0213 9.29924 81.5649 9.15909 82.2202 9.15909C82.8149 9.15909 83.3357 9.28409 83.7827 9.53409C84.2296 9.7803 84.5762 10.1477 84.8224 10.6364C85.0687 11.125 85.1918 11.7292 85.1918 12.4489V18H83.4929V12.6534C83.4929 12.0208 83.3281 11.5265 82.9986 11.1705C82.669 10.8106 82.2164 10.6307 81.6406 10.6307C81.2467 10.6307 80.8963 10.7159 80.5895 10.8864C80.2865 11.0568 80.0459 11.3068 79.8679 11.6364C79.6937 11.9621 79.6065 12.3561 79.6065 12.8182ZM92.9986 14.3807V9.27273H94.7031V18H93.0327V16.4886H92.9418C92.741 16.9545 92.419 17.3428 91.9759 17.6534C91.5365 17.9602 90.9891 18.1136 90.3338 18.1136C89.7732 18.1136 89.277 17.9905 88.8452 17.7443C88.4171 17.4943 88.08 17.125 87.8338 16.6364C87.5914 16.1477 87.4702 15.5436 87.4702 14.8239V9.27273H89.169V14.6193C89.169 15.214 89.3338 15.6875 89.6634 16.0398C89.9929 16.392 90.4209 16.5682 90.9474 16.5682C91.2656 16.5682 91.5819 16.4886 91.8963 16.3295C92.2145 16.1705 92.4777 15.9299 92.6861 15.608C92.8982 15.286 93.0024 14.8769 92.9986 14.3807ZM99.5256 18.1932C98.9725 18.1932 98.4725 18.0909 98.0256 17.8864C97.5786 17.678 97.2244 17.3769 96.9631 16.983C96.7055 16.589 96.5767 16.1061 96.5767 15.5341C96.5767 15.0417 96.6714 14.6364 96.8608 14.3182C97.0502 14 97.3059 13.7481 97.6278 13.5625C97.9498 13.3769 98.3097 13.2367 98.7074 13.142C99.1051 13.0473 99.5104 12.9754 99.9233 12.9261C100.446 12.8655 100.87 12.8163 101.196 12.7784C101.522 12.7367 101.759 12.6705 101.906 12.5795C102.054 12.4886 102.128 12.3409 102.128 12.1364V12.0966C102.128 11.6004 101.988 11.2159 101.707 10.9432C101.431 10.6705 101.018 10.5341 100.469 10.5341C99.8968 10.5341 99.446 10.661 99.1165 10.9148C98.7907 11.1648 98.5653 11.4432 98.4403 11.75L96.8438 11.3864C97.0331 10.8561 97.3097 10.428 97.6733 10.1023C98.0407 9.77273 98.4631 9.53409 98.9403 9.38636C99.4176 9.23485 99.9195 9.15909 100.446 9.15909C100.795 9.15909 101.164 9.20076 101.554 9.28409C101.948 9.36364 102.315 9.51136 102.656 9.72727C103.001 9.94318 103.283 10.2519 103.503 10.6534C103.723 11.0511 103.832 11.5682 103.832 12.2045V18H102.173V16.8068H102.105C101.995 17.0265 101.83 17.2424 101.611 17.4545C101.391 17.6667 101.109 17.8428 100.764 17.983C100.42 18.1231 100.007 18.1932 99.5256 18.1932ZM99.8949 16.8295C100.365 16.8295 100.766 16.7367 101.099 16.5511C101.437 16.3655 101.692 16.1231 101.866 15.8239C102.045 15.5208 102.134 15.197 102.134 14.8523V13.7273C102.073 13.7879 101.955 13.8447 101.781 13.8977C101.611 13.947 101.416 13.9905 101.196 14.0284C100.976 14.0625 100.762 14.0947 100.554 14.125C100.346 14.1515 100.171 14.1742 100.031 14.1932C99.7017 14.2348 99.4006 14.3049 99.1278 14.4034C98.8589 14.5019 98.643 14.6439 98.4801 14.8295C98.321 15.0114 98.2415 15.2538 98.2415 15.5568C98.2415 15.9773 98.3968 16.2955 98.7074 16.5114C99.018 16.7235 99.4138 16.8295 99.8949 16.8295ZM107.794 6.36364V18H106.095V6.36364H107.794ZM114.314 21.2727V9.27273H115.973V10.6875H116.115C116.214 10.5057 116.356 10.2955 116.541 10.0568C116.727 9.81818 116.984 9.60985 117.314 9.43182C117.643 9.25 118.079 9.15909 118.621 9.15909C119.325 9.15909 119.954 9.33712 120.507 9.69318C121.06 10.0492 121.494 10.5625 121.808 11.233C122.126 11.9034 122.286 12.7102 122.286 13.6534C122.286 14.5966 122.128 15.4053 121.814 16.0795C121.5 16.75 121.068 17.267 120.518 17.6307C119.969 17.9905 119.342 18.1705 118.638 18.1705C118.107 18.1705 117.674 18.0814 117.337 17.9034C117.003 17.7254 116.742 17.517 116.553 17.2784C116.363 17.0398 116.217 16.8277 116.115 16.642H116.013V21.2727H114.314ZM115.979 13.6364C115.979 14.25 116.068 14.7879 116.246 15.25C116.424 15.7121 116.681 16.0739 117.018 16.3352C117.356 16.5928 117.768 16.7216 118.257 16.7216C118.765 16.7216 119.189 16.5871 119.53 16.3182C119.871 16.0455 120.128 15.6761 120.303 15.2102C120.481 14.7443 120.57 14.2197 120.57 13.6364C120.57 13.0606 120.482 12.5436 120.308 12.0852C120.138 11.6269 119.88 11.2652 119.536 11C119.195 10.7348 118.768 10.6023 118.257 10.6023C117.765 10.6023 117.348 10.7292 117.007 10.983C116.67 11.2367 116.414 11.5909 116.24 12.0455C116.066 12.5 115.979 13.0303 115.979 13.6364ZM124.189 18V9.27273H125.831V10.6591H125.922C126.081 10.1894 126.361 9.82008 126.763 9.55114C127.168 9.27841 127.626 9.14205 128.138 9.14205C128.244 9.14205 128.369 9.14583 128.513 9.15341C128.661 9.16098 128.776 9.17045 128.859 9.18182V10.8068C128.791 10.7879 128.67 10.767 128.496 10.7443C128.321 10.7178 128.147 10.7045 127.973 10.7045C127.571 10.7045 127.214 10.7898 126.899 10.9602C126.589 11.1269 126.342 11.3598 126.161 11.6591C125.979 11.9545 125.888 12.2917 125.888 12.6705V18H124.189ZM130.33 18V9.27273H132.028V18H130.33ZM131.188 7.92614C130.892 7.92614 130.638 7.82765 130.426 7.63068C130.218 7.42992 130.114 7.19129 130.114 6.91477C130.114 6.63447 130.218 6.39583 130.426 6.19886C130.638 5.99811 130.892 5.89773 131.188 5.89773C131.483 5.89773 131.735 5.99811 131.943 6.19886C132.155 6.39583 132.261 6.63447 132.261 6.91477C132.261 7.19129 132.155 7.42992 131.943 7.63068C131.735 7.82765 131.483 7.92614 131.188 7.92614ZM137.99 18.1761C137.145 18.1761 136.418 17.9848 135.808 17.6023C135.202 17.2159 134.736 16.6837 134.411 16.0057C134.085 15.3277 133.922 14.5511 133.922 13.6761C133.922 12.7898 134.089 12.0076 134.422 11.3295C134.755 10.6477 135.225 10.1155 135.831 9.73295C136.437 9.35038 137.151 9.15909 137.973 9.15909C138.636 9.15909 139.227 9.2822 139.746 9.52841C140.265 9.77083 140.683 10.1117 141.001 10.5511C141.323 10.9905 141.515 11.5038 141.575 12.0909H139.922C139.831 11.6818 139.623 11.3295 139.297 11.0341C138.975 10.7386 138.543 10.5909 138.001 10.5909C137.528 10.5909 137.113 10.7159 136.757 10.9659C136.405 11.2121 136.13 11.5644 135.933 12.0227C135.736 12.4773 135.638 13.0152 135.638 13.6364C135.638 14.2727 135.734 14.822 135.928 15.2841C136.121 15.7462 136.393 16.1042 136.746 16.358C137.102 16.6117 137.52 16.7386 138.001 16.7386C138.323 16.7386 138.615 16.6799 138.876 16.5625C139.142 16.4413 139.363 16.2689 139.541 16.0455C139.723 15.822 139.85 15.553 139.922 15.2386H141.575C141.515 15.803 141.331 16.3068 141.024 16.75C140.717 17.1932 140.306 17.5417 139.791 17.7955C139.28 18.0492 138.679 18.1761 137.99 18.1761ZM143.392 18V9.27273H145.091V18H143.392ZM144.25 7.92614C143.955 7.92614 143.701 7.82765 143.489 7.63068C143.28 7.42992 143.176 7.19129 143.176 6.91477C143.176 6.63447 143.28 6.39583 143.489 6.19886C143.701 5.99811 143.955 5.89773 144.25 5.89773C144.545 5.89773 144.797 5.99811 145.006 6.19886C145.218 6.39583 145.324 6.63447 145.324 6.91477C145.324 7.19129 145.218 7.42992 145.006 7.63068C144.797 7.82765 144.545 7.92614 144.25 7.92614ZM149.075 12.8182V18H147.376V9.27273H149.007V10.6932H149.115C149.316 10.2311 149.63 9.85985 150.058 9.57955C150.49 9.29924 151.034 9.15909 151.689 9.15909C152.284 9.15909 152.804 9.28409 153.251 9.53409C153.698 9.7803 154.045 10.1477 154.291 10.6364C154.537 11.125 154.661 11.7292 154.661 12.4489V18H152.962V12.6534C152.962 12.0208 152.797 11.5265 152.467 11.1705C152.138 10.8106 151.685 10.6307 151.109 10.6307C150.715 10.6307 150.365 10.7159 150.058 10.8864C149.755 11.0568 149.515 11.3068 149.337 11.6364C149.162 11.9621 149.075 12.3561 149.075 12.8182ZM160.598 21.4545C159.905 21.4545 159.308 21.3636 158.808 21.1818C158.312 21 157.907 20.7595 157.592 20.4602C157.278 20.161 157.043 19.8333 156.888 19.4773L158.348 18.875C158.45 19.0417 158.587 19.2178 158.757 19.4034C158.931 19.5928 159.166 19.7538 159.462 19.8864C159.761 20.0189 160.145 20.0852 160.615 20.0852C161.259 20.0852 161.791 19.928 162.212 19.6136C162.632 19.303 162.842 18.8068 162.842 18.125V16.4091H162.734C162.632 16.5947 162.484 16.8011 162.291 17.0284C162.102 17.2557 161.84 17.4527 161.507 17.6193C161.174 17.786 160.74 17.8693 160.206 17.8693C159.517 17.8693 158.895 17.7083 158.342 17.3864C157.793 17.0606 157.357 16.5814 157.036 15.9489C156.717 15.3125 156.558 14.5303 156.558 13.6023C156.558 12.6742 156.715 11.8788 157.03 11.2159C157.348 10.553 157.784 10.0455 158.337 9.69318C158.89 9.33712 159.517 9.15909 160.217 9.15909C160.759 9.15909 161.196 9.25 161.53 9.43182C161.863 9.60985 162.123 9.81818 162.308 10.0568C162.498 10.2955 162.643 10.5057 162.746 10.6875H162.871V9.27273H164.536V18.1932C164.536 18.9432 164.361 19.5587 164.013 20.0398C163.664 20.5208 163.193 20.8769 162.598 21.108C162.007 21.339 161.34 21.4545 160.598 21.4545ZM160.581 16.4602C161.07 16.4602 161.482 16.3466 161.82 16.1193C162.161 15.8883 162.418 15.5587 162.592 15.1307C162.77 14.6989 162.859 14.1818 162.859 13.5795C162.859 12.9924 162.772 12.4754 162.598 12.0284C162.424 11.5814 162.168 11.233 161.831 10.983C161.494 10.7292 161.077 10.6023 160.581 10.6023C160.07 10.6023 159.643 10.7348 159.303 11C158.962 11.2614 158.704 11.6174 158.53 12.0682C158.359 12.5189 158.274 13.0227 158.274 13.5795C158.274 14.1515 158.361 14.6534 158.536 15.0852C158.71 15.517 158.967 15.8542 159.308 16.0966C159.653 16.339 160.077 16.4602 160.581 16.4602Z" fill="#42307D"/>
<path d="M171.543 13.1705C171.543 11.7462 171.73 10.4356 172.105 9.23864C172.48 8.04167 173.027 6.9375 173.747 5.92614H175.304C175.024 6.30114 174.762 6.76136 174.52 7.30682C174.277 7.85227 174.065 8.45076 173.884 9.10227C173.702 9.75 173.56 10.4223 173.457 11.1193C173.355 11.8125 173.304 12.4962 173.304 13.1705C173.304 14.072 173.393 14.9848 173.571 15.9091C173.749 16.8333 173.99 17.6913 174.293 18.483C174.596 19.2746 174.933 19.9205 175.304 20.4205H173.747C173.027 19.4091 172.48 18.3049 172.105 17.108C171.73 15.911 171.543 14.5985 171.543 13.1705ZM183.635 11.4034L182.095 11.6761C182.031 11.4792 181.929 11.2917 181.788 11.1136C181.652 10.9356 181.466 10.7898 181.232 10.6761C180.997 10.5625 180.703 10.5057 180.351 10.5057C179.87 10.5057 179.468 10.6136 179.146 10.8295C178.824 11.0417 178.663 11.3163 178.663 11.6534C178.663 11.9451 178.771 12.1799 178.987 12.358C179.203 12.536 179.552 12.6818 180.033 12.7955L181.419 13.1136C182.222 13.2992 182.821 13.5852 183.214 13.9716C183.608 14.358 183.805 14.8598 183.805 15.4773C183.805 16 183.654 16.4659 183.351 16.875C183.052 17.2803 182.633 17.5985 182.095 17.8295C181.561 18.0606 180.942 18.1761 180.237 18.1761C179.26 18.1761 178.463 17.9678 177.845 17.5511C177.228 17.1307 176.849 16.5341 176.709 15.7614L178.351 15.5114C178.453 15.9394 178.663 16.2633 178.982 16.483C179.3 16.6989 179.714 16.8068 180.226 16.8068C180.783 16.8068 181.228 16.6913 181.561 16.4602C181.894 16.2254 182.061 15.9394 182.061 15.6023C182.061 15.3295 181.959 15.1004 181.754 14.9148C181.554 14.7292 181.245 14.589 180.828 14.4943L179.351 14.1705C178.536 13.9848 177.934 13.6894 177.544 13.2841C177.158 12.8788 176.964 12.3655 176.964 11.7443C176.964 11.2292 177.108 10.7784 177.396 10.392C177.684 10.0057 178.082 9.70455 178.589 9.48864C179.097 9.26894 179.679 9.15909 180.334 9.15909C181.277 9.15909 182.019 9.36364 182.561 9.77273C183.103 10.178 183.461 10.7216 183.635 11.4034ZM188.213 18.1932C187.66 18.1932 187.16 18.0909 186.713 17.8864C186.266 17.678 185.912 17.3769 185.651 16.983C185.393 16.589 185.264 16.1061 185.264 15.5341C185.264 15.0417 185.359 14.6364 185.548 14.3182C185.738 14 185.993 13.7481 186.315 13.5625C186.637 13.3769 186.997 13.2367 187.395 13.142C187.793 13.0473 188.198 12.9754 188.611 12.9261C189.134 12.8655 189.558 12.8163 189.884 12.7784C190.209 12.7367 190.446 12.6705 190.594 12.5795C190.741 12.4886 190.815 12.3409 190.815 12.1364V12.0966C190.815 11.6004 190.675 11.2159 190.395 10.9432C190.118 10.6705 189.705 10.5341 189.156 10.5341C188.584 10.5341 188.134 10.661 187.804 10.9148C187.478 11.1648 187.253 11.4432 187.128 11.75L185.531 11.3864C185.721 10.8561 185.997 10.428 186.361 10.1023C186.728 9.77273 187.151 9.53409 187.628 9.38636C188.105 9.23485 188.607 9.15909 189.134 9.15909C189.482 9.15909 189.851 9.20076 190.241 9.28409C190.635 9.36364 191.003 9.51136 191.344 9.72727C191.688 9.94318 191.971 10.2519 192.19 10.6534C192.41 11.0511 192.52 11.5682 192.52 12.2045V18H190.861V16.8068H190.793C190.683 17.0265 190.518 17.2424 190.298 17.4545C190.079 17.6667 189.796 17.8428 189.452 17.983C189.107 18.1231 188.694 18.1932 188.213 18.1932ZM188.582 16.8295C189.052 16.8295 189.454 16.7367 189.787 16.5511C190.124 16.3655 190.38 16.1231 190.554 15.8239C190.732 15.5208 190.821 15.197 190.821 14.8523V13.7273C190.76 13.7879 190.643 13.8447 190.469 13.8977C190.298 13.947 190.103 13.9905 189.884 14.0284C189.664 14.0625 189.45 14.0947 189.241 14.125C189.033 14.1515 188.859 14.1742 188.719 14.1932C188.389 14.2348 188.088 14.3049 187.815 14.4034C187.546 14.5019 187.33 14.6439 187.168 14.8295C187.009 15.0114 186.929 15.2538 186.929 15.5568C186.929 15.9773 187.084 16.2955 187.395 16.5114C187.705 16.7235 188.101 16.8295 188.582 16.8295ZM201.936 9.27273L198.771 18H196.953L193.783 9.27273H195.607L197.817 15.9886H197.908L200.112 9.27273H201.936ZM206.997 18.1761C206.137 18.1761 205.397 17.9924 204.776 17.625C204.158 17.2538 203.681 16.733 203.344 16.0625C203.01 15.3883 202.844 14.5985 202.844 13.6932C202.844 12.7992 203.01 12.0114 203.344 11.3295C203.681 10.6477 204.151 10.1155 204.753 9.73295C205.359 9.35038 206.067 9.15909 206.878 9.15909C207.37 9.15909 207.848 9.24053 208.31 9.40341C208.772 9.56629 209.187 9.82197 209.554 10.1705C209.921 10.5189 210.211 10.9716 210.423 11.5284C210.635 12.0814 210.741 12.7538 210.741 13.5455V14.1477H203.804V12.875H209.077C209.077 12.428 208.986 12.0322 208.804 11.6875C208.622 11.339 208.366 11.0644 208.037 10.8636C207.711 10.6629 207.329 10.5625 206.889 10.5625C206.412 10.5625 205.995 10.6799 205.639 10.9148C205.287 11.1458 205.014 11.4489 204.821 11.8239C204.632 12.1951 204.537 12.5985 204.537 13.0341V14.0284C204.537 14.6117 204.639 15.108 204.844 15.517C205.052 15.9261 205.342 16.2386 205.713 16.4545C206.084 16.6667 206.518 16.7727 207.014 16.7727C207.336 16.7727 207.63 16.7273 207.895 16.6364C208.16 16.5417 208.389 16.4015 208.582 16.2159C208.776 16.0303 208.923 15.8011 209.026 15.5284L210.634 15.8182C210.505 16.2917 210.274 16.7064 209.94 17.0625C209.611 17.4148 209.196 17.6894 208.696 17.8864C208.2 18.0795 207.634 18.1761 206.997 18.1761ZM216.838 18V16.7273L220.776 12.6477C221.196 12.2045 221.543 11.8163 221.815 11.483C222.092 11.1458 222.298 10.8258 222.435 10.5227C222.571 10.2197 222.639 9.89773 222.639 9.55682C222.639 9.17045 222.548 8.83712 222.366 8.55682C222.185 8.27273 221.937 8.05492 221.622 7.90341C221.308 7.74811 220.954 7.67045 220.56 7.67045C220.143 7.67045 219.779 7.75568 219.469 7.92614C219.158 8.09659 218.92 8.33712 218.753 8.64773C218.586 8.95833 218.503 9.32197 218.503 9.73864H216.827C216.827 9.0303 216.99 8.41098 217.315 7.88068C217.641 7.35038 218.088 6.93939 218.656 6.64773C219.224 6.35227 219.87 6.20455 220.594 6.20455C221.325 6.20455 221.969 6.35038 222.526 6.64205C223.086 6.92992 223.524 7.32386 223.838 7.82386C224.152 8.32008 224.31 8.88068 224.31 9.50568C224.31 9.9375 224.228 10.3598 224.065 10.7727C223.906 11.1856 223.628 11.6458 223.23 12.1534C222.832 12.6572 222.279 13.2689 221.571 13.9886L219.259 16.4091V16.4943H224.497V18H216.838ZM230.702 18.1932C229.804 18.1894 229.037 17.9527 228.401 17.483C227.764 17.0133 227.277 16.3295 226.94 15.4318C226.603 14.5341 226.435 13.4527 226.435 12.1875C226.435 10.9261 226.603 9.84848 226.94 8.95455C227.281 8.06061 227.77 7.37879 228.406 6.90909C229.046 6.43939 229.812 6.20455 230.702 6.20455C231.592 6.20455 232.355 6.44129 232.991 6.91477C233.628 7.38447 234.115 8.06629 234.452 8.96023C234.793 9.85038 234.963 10.9261 234.963 12.1875C234.963 13.4564 234.795 14.5398 234.457 15.4375C234.12 16.3314 233.634 17.0152 232.997 17.4886C232.361 17.9583 231.596 18.1932 230.702 18.1932ZM230.702 16.6761C231.49 16.6761 232.105 16.2917 232.548 15.5227C232.995 14.7538 233.219 13.642 233.219 12.1875C233.219 11.2216 233.116 10.4053 232.912 9.73864C232.711 9.06818 232.421 8.56061 232.043 8.21591C231.668 7.86742 231.221 7.69318 230.702 7.69318C229.918 7.69318 229.302 8.07954 228.855 8.85227C228.408 9.625 228.183 10.7367 228.179 12.1875C228.179 13.1572 228.279 13.9773 228.48 14.6477C228.685 15.3144 228.974 15.8201 229.349 16.1648C229.724 16.5057 230.175 16.6761 230.702 16.6761ZM243.053 15.8182V15.2045C243.053 14.7652 243.143 14.3636 243.325 14C243.511 13.6326 243.78 13.339 244.132 13.1193C244.488 12.8958 244.918 12.7841 245.422 12.7841C245.937 12.7841 246.369 12.8939 246.717 13.1136C247.066 13.3333 247.329 13.6269 247.507 13.9943C247.689 14.3617 247.78 14.7652 247.78 15.2045V15.8182C247.78 16.2576 247.689 16.661 247.507 17.0284C247.325 17.392 247.058 17.6856 246.706 17.9091C246.357 18.1288 245.929 18.2386 245.422 18.2386C244.911 18.2386 244.479 18.1288 244.126 17.9091C243.774 17.6856 243.507 17.392 243.325 17.0284C243.143 16.661 243.053 16.2576 243.053 15.8182ZM244.376 15.2045V15.8182C244.376 16.1439 244.454 16.4394 244.609 16.7045C244.765 16.9697 245.036 17.1023 245.422 17.1023C245.804 17.1023 246.071 16.9697 246.223 16.7045C246.375 16.4394 246.45 16.1439 246.45 15.8182V15.2045C246.45 14.8788 246.376 14.5833 246.229 14.3182C246.085 14.053 245.816 13.9205 245.422 13.9205C245.043 13.9205 244.774 14.053 244.615 14.3182C244.456 14.5833 244.376 14.8788 244.376 15.2045ZM237.2 9.15909V8.54545C237.2 8.10606 237.291 7.70265 237.473 7.33523C237.659 6.9678 237.928 6.67424 238.28 6.45455C238.636 6.23485 239.066 6.125 239.57 6.125C240.085 6.125 240.517 6.23485 240.865 6.45455C241.214 6.67424 241.477 6.9678 241.655 7.33523C241.833 7.70265 241.922 8.10606 241.922 8.54545V9.15909C241.922 9.59848 241.831 10.0019 241.649 10.3693C241.471 10.733 241.206 11.0265 240.854 11.25C240.505 11.4697 240.077 11.5795 239.57 11.5795C239.054 11.5795 238.621 11.4697 238.268 11.25C237.92 11.0265 237.655 10.733 237.473 10.3693C237.291 10.0019 237.2 9.59848 237.2 9.15909ZM238.53 8.54545V9.15909C238.53 9.48485 238.606 9.7803 238.757 10.0455C238.912 10.3106 239.183 10.4432 239.57 10.4432C239.948 10.4432 240.214 10.3106 240.365 10.0455C240.52 9.7803 240.598 9.48485 240.598 9.15909V8.54545C240.598 8.2197 240.524 7.92424 240.376 7.65909C240.229 7.39394 239.96 7.26136 239.57 7.26136C239.191 7.26136 238.922 7.39394 238.763 7.65909C238.607 7.92424 238.53 8.2197 238.53 8.54545ZM237.74 18L245.74 6.36364H247.098L239.098 18H237.74ZM253.518 12.1818C253.518 13.6098 253.331 14.9223 252.956 16.1193C252.581 17.3163 252.034 18.4205 251.314 19.4318H249.757C250.037 19.0568 250.299 18.5966 250.541 18.0511C250.784 17.5057 250.996 16.9091 251.178 16.2614C251.359 15.6098 251.501 14.9356 251.604 14.2386C251.706 13.5417 251.757 12.8561 251.757 12.1818C251.757 11.2841 251.668 10.3731 251.49 9.44886C251.312 8.52462 251.071 7.66667 250.768 6.875C250.465 6.08333 250.128 5.4375 249.757 4.9375H251.314C252.034 5.94886 252.581 7.05303 252.956 8.25C253.331 9.44697 253.518 10.7576 253.518 12.1818Z" fill="#6941C6"/>
<defs>
<filter id="filter0_dd_231_23625" x="19" y="0" width="26" height="26" filterUnits="userSpaceOnUse" color-interpolation-filters="sRGB">
<feFlood flood-opacity="0" result="BackgroundImageFix"/>
<feColorMatrix in="SourceAlpha" type="matrix" values="0 0 0 0 0 0 0 0 0 0 0 0 0 0 0 0 0 0 127 0" result="hardAlpha"/>
<feOffset dy="1"/>
<feGaussianBlur stdDeviation="1"/>
<feColorMatrix type="matrix" values="0 0 0 0 0.0627451 0 0 0 0 0.0941176 0 0 0 0 0.156863 0 0 0 0.06 0"/>
<feBlend mode="normal" in2="BackgroundImageFix" result="effect1_dropShadow_231_23625"/>
<feColorMatrix in="SourceAlpha" type="matrix" values="0 0 0 0 0 0 0 0 0 0 0 0 0 0 0 0 0 0 127 0" result="hardAlpha"/>
<feOffset dy="1"/>
<feGaussianBlur stdDeviation="1.5"/>
<feColorMatrix type="matrix" values="0 0 0 0 0.0627451 0 0 0 0 0.0941176 0 0 0 0 0.156863 0 0 0 0.1 0"/>
<feBlend mode="normal" in2="effect1_dropShadow_231_23625" result="effect2_dropShadow_231_23625"/>
<feBlend mode="normal" in="SourceGraphic" in2="effect2_dropShadow_231_23625" result="shape"/>
</filter>
<clipPath id="clip0_231_23625">
<rect width="44" height="24" rx="12" fill="white"/>
</clipPath>
</defs>
</svg>
