<svg width="68" height="68" viewBox="0 0 68 68" fill="none" xmlns="http://www.w3.org/2000/svg">
<g clip-path="url(#clip0_49_53382)">
<path d="M65.3643 2.57082C64.7393 1.94582 63.8297 1.73014 62.9906 2.00785L18.1169 16.8604C16.8943 17.265 17.5201 19.1562 18.7428 18.7516L63.6165 3.89902C63.9289 3.86635 64.0687 4.0062 64.036 4.31856L45.0002 61.8313C44.852 62.2791 44.2277 62.3166 44.0269 61.8896L36.3401 45.5362L39.9867 39.65C40.6651 38.5553 38.9715 37.5062 38.2933 38.601L34.684 44.427L25.6795 43.6644L50.588 18.7558L41.0564 34.1412C40.3781 35.2359 42.0715 36.2851 42.7498 35.1902L56.808 12.4983C57.35 11.6251 56.3073 10.5854 55.4352 11.128L22.4508 31.6466L6.03899 23.9099C5.61254 23.7089 5.65026 23.0851 6.09782 22.9369L13.7555 20.4024C14.9781 19.9977 14.3522 18.1065 13.1296 18.5112L5.4719 21.0457C3.358 21.7453 3.17539 24.7624 5.18955 25.7119L21.5699 33.4337L22.4662 44.5559C22.505 45.0375 22.8961 45.4249 23.375 45.4685L34.5518 46.415L42.224 62.737C43.1667 64.7424 46.1923 64.5698 46.8914 62.4572L65.9272 4.94462C66.2051 4.10541 65.9893 3.19594 65.3643 2.57082ZM24.2789 42.2476L23.6429 34.3555L23.5582 33.304L49.1303 17.3964L24.2789 42.2476Z" fill="#685ED6"/>
<path d="M19.5064 47.888C19.1111 47.5052 18.4806 47.5154 18.0979 47.9105L0.283665 66.3074C-0.610263 67.2304 0.815692 68.6217 1.71467 67.6933L19.5289 49.2965C19.9117 48.9013 19.9016 48.2707 19.5064 47.888Z" fill="#685ED6"/>
<path d="M25.9023 47.9151L11.8224 62.5775C10.933 63.5037 12.3632 64.8903 13.2592 63.9573L27.3391 49.295C28.2312 48.366 26.7945 46.9863 25.9023 47.9151Z" fill="#685ED6"/>
<path d="M4.3193 56.3826C4.58094 56.3826 4.8423 56.2801 5.03793 56.0765L19.1177 41.4141C20.0097 40.4851 18.5729 39.1054 17.6808 40.0343L3.60095 54.6966C3.02735 55.294 3.49497 56.3826 4.3193 56.3826Z" fill="#685ED6"/>
</g>
<defs>
<clipPath id="clip0_49_53382">
<rect width="68" height="68" fill="white"/>
</clipPath>
</defs>
</svg>
