<svg width="690" height="555" viewBox="0 0 690 555" fill="none" xmlns="http://www.w3.org/2000/svg">
<path d="M654.965 176.786H579.767C573.768 176.786 568.864 181.687 568.864 187.683V220.648C568.864 226.157 573.372 230.662 578.884 230.662H580.803L577.179 245.942L599.93 230.662H655.605C661.605 230.662 666.508 225.761 666.508 219.765V188.322C666.508 181.961 661.3 176.786 654.965 176.786Z" fill="#88EEFB"/>
<path d="M656.975 204.156H578.58C577.514 204.156 576.631 203.274 576.631 202.208C576.631 201.143 577.514 200.26 578.58 200.26H656.975C658.041 200.26 658.925 201.143 658.925 202.208C658.925 203.274 658.041 204.156 656.975 204.156Z" fill="white"/>
<path d="M656.975 212.831H578.58C577.514 212.831 576.631 211.948 576.631 210.883C576.631 209.818 577.514 208.935 578.58 208.935H656.975C658.041 208.935 658.925 209.818 658.925 210.883C658.925 211.979 658.041 212.831 656.975 212.831Z" fill="white"/>
<path d="M656.975 221.536H578.58C577.514 221.536 576.631 220.653 576.631 219.588C576.631 218.523 577.514 217.64 578.58 217.64H656.975C658.041 217.64 658.925 218.523 658.925 219.588C658.925 220.653 658.041 221.536 656.975 221.536Z" fill="white"/>
<path d="M614.275 190.672H580.986C579.707 190.672 578.671 189.637 578.671 188.359C578.671 187.08 579.707 186.045 580.986 186.045H614.275C615.554 186.045 616.59 187.08 616.59 188.359C616.559 189.637 615.524 190.672 614.275 190.672Z" fill="white"/>
<path d="M642.874 190.672H622.833C621.828 190.672 621.006 189.85 621.006 188.846V187.872C621.006 186.867 621.828 186.045 622.833 186.045H642.874C643.879 186.045 644.701 186.867 644.701 187.872V188.846C644.701 189.85 643.879 190.672 642.874 190.672Z" fill="white"/>
<path d="M264.694 376.232H369.221C372.51 376.232 375.16 373.584 375.16 370.297V338.154C375.16 334.867 372.51 332.219 369.221 332.219H264.694C261.404 332.219 258.755 334.867 258.755 338.154V370.297C258.785 373.554 261.435 376.232 264.694 376.232Z" fill="white"/>
<path d="M431.292 22.1898V407.143C431.292 416.64 423.587 424.31 414.084 424.31H198.451C188.949 424.31 181.243 416.609 181.243 407.143V22.1898C181.243 12.6931 188.949 4.99219 198.451 4.99219H414.084C423.617 5.02263 431.292 12.6931 431.292 22.1898Z" fill="#C0D8FB"/>
<path d="M237.679 312.51H342.876C345.953 312.51 348.45 310.014 348.45 306.94V279.089C348.45 276.015 345.953 273.519 342.876 273.519H237.679C234.603 273.519 232.106 276.015 232.106 279.089V306.909C232.106 310.014 234.603 312.51 237.679 312.51Z" fill="#FCE29E"/>
<path d="M426.937 5.02246H184.958V166.224H426.937V5.02246Z" fill="#F0F6FF"/>
<path d="M336.816 25.9645H275.812C266.766 25.9645 259.456 18.6593 259.456 9.61914H353.172C353.141 18.6593 345.831 25.9645 336.816 25.9645Z" fill="#2B478B"/>
<path d="M414.541 428.937H198.024C186.359 428.937 176.887 418.953 176.887 406.686V22.6464C176.887 10.3798 186.359 0.395996 198.024 0.395996H414.541C426.205 0.395996 435.678 10.3798 435.678 22.6464V406.686C435.678 418.953 426.205 428.937 414.541 428.937ZM198.024 9.6188C191.202 9.6188 185.659 15.463 185.659 22.6464V406.686C185.659 413.87 191.202 419.714 198.024 419.714H414.541C421.363 419.714 426.906 413.87 426.906 406.686V22.6464C426.906 15.463 421.363 9.6188 414.541 9.6188H198.024Z" fill="#2B478B"/>
<path d="M413.414 424.188H192.451C186.147 424.188 181 419.075 181 412.774V397.281H431.567V406.047C431.567 416.061 423.435 424.188 413.414 424.188Z" fill="#2B478B"/>
<path d="M451.851 215.473C461.292 213.464 471.13 216.326 478.135 222.961C481.211 225.883 484.592 229.566 487.698 233.919C495.404 244.664 480.663 255.317 482.612 258.939C484.561 262.592 489.13 265.453 487.12 273.062C485.14 280.672 472.013 290.534 467.749 290.96C424.409 295.404 405.617 271.541 420.084 258.665C434.551 245.79 428.673 227.131 440.429 219.887C444.084 217.634 448.074 216.295 451.851 215.473Z" fill="#233862"/>
<path d="M473.901 282.042C473.901 282.042 514.713 299.817 522.114 299.483C529.515 299.148 575.169 285.603 575.169 285.603L574.012 293.456C574.012 293.456 538.773 313.697 526.469 314.854C514.347 315.98 472.896 303.988 468.876 301.431C464.855 298.874 462.266 284.598 473.901 282.042Z" fill="#FDB888"/>
<path d="M478.835 301.462C475.241 303.957 470.764 305.997 465.129 307.306C443.992 312.176 435.891 294.339 432.845 282.072C435.738 280.429 438.449 280.063 440.002 279.881C441.525 279.698 443.139 279.576 444.479 279.516C446.855 277.689 450.388 270.262 451.18 258.696L452.185 258.97L468.845 263.535C468.845 263.535 468.083 268.832 467.718 273.824C467.444 277.75 467.383 281.494 468.114 282.407C469.424 282.681 470.185 282.864 470.185 282.864C470.185 282.864 470.185 282.864 470.185 282.894C470.398 283.229 475.241 291.173 478.835 301.462Z" fill="#FFB27D"/>
<path d="M468.814 263.505C468.814 263.505 468.053 268.801 467.688 273.793C458.246 272.849 453.86 263.87 452.155 258.939L468.814 263.505Z" fill="#ED985F"/>
<path d="M471.647 268.467C471.647 268.467 449.23 267.219 450.205 253.308C451.18 239.368 448.956 229.84 463.301 230.023C477.647 230.236 480.053 235.745 480.845 240.463C481.667 245.181 477.494 268.436 471.647 268.467Z" fill="#FFB27D"/>
<path d="M480.784 232.671C477.616 228.227 474.936 228.958 473.383 230.114C461.627 222.505 453.038 231.88 453.038 231.88C450.815 241.772 443.2 246.977 443.2 246.977C443.2 246.977 447.16 250.143 456.693 248.042C468.845 245.333 473.018 234.802 473.596 233.189C474.875 234.528 476.52 235.35 477.799 238.241C479.292 241.65 480.236 243.629 480.266 249.229C480.236 249.229 485.505 239.337 480.784 232.671Z" fill="#233862"/>
<path d="M426.449 346.997C424.439 336.648 417.83 295.343 424.439 282.042C426.815 277.263 436.104 276.837 446.307 277.263C449.474 279.302 461.566 287.064 466.561 286.09C466.622 286.09 466.713 286.06 466.835 286.029C469.18 285.451 470.063 283.807 468.114 282.377C468.114 282.377 473.17 281.89 479.444 283.077C482.977 283.746 492.54 288.677 492.54 288.677C492.54 288.677 487.728 297.383 480.632 300.366C481.85 311.171 480.053 315.92 468.845 340.849C459.373 361.912 470.124 380.906 470.124 380.906C470.124 380.906 414.388 425.68 414.084 402.882C413.84 385.715 429.038 360.207 426.449 346.997Z" fill="white"/>
<path d="M472.865 429.576C475.911 429.241 478.621 427.567 480.327 425.041C480.601 424.645 480.875 424.219 481.18 423.732C487.515 414.144 489.982 384.741 504.266 353.42C507.738 345.81 520.225 344.44 523.606 335.796C523.606 335.796 531.981 307.854 507.585 307.032C483.19 306.21 442.256 384.741 441.586 392.989C440.977 401.025 425.474 434.933 472.865 429.576Z" fill="#FDCD51"/>
<path d="M569.839 428.937H535.119C535.119 428.937 533.809 423.397 536.093 419.623C538.103 416.305 537.342 414.387 535.849 411.648C537.433 412.287 539.443 412.866 541.697 412.744C543.433 412.652 545.261 411.861 546.875 410.917C548.367 412.622 554.763 419.866 556.773 421.297C559.027 422.971 569.139 422.362 569.839 428.937Z" fill="#233862"/>
<path d="M524.399 315.158C526.5 330.834 534.662 380.266 549.068 404.404C553.698 412.196 537.373 416.548 537.282 416.518C535.089 415.94 531.434 412.439 529.759 410.948C518.064 400.416 494.338 370.587 494.338 346.693C494.338 335.035 494.125 312.754 502.622 307.092C507.83 303.592 523.576 308.949 524.399 315.158Z" fill="#FDCD51"/>
<path d="M452.155 428.937C452.155 428.937 453.434 427.141 455.688 423.763C458.368 419.714 461.322 411.77 464.885 401.573C468.662 390.859 473.109 377.709 478.713 363.982C480.449 359.751 482.276 355.459 484.225 351.198C487.697 343.588 497.261 344.623 500.672 336.009C500.672 336.009 513.951 306.149 489.555 305.297C465.16 304.475 418.805 385.197 416.124 393.02C413.2 401.604 398.947 437.155 452.155 428.937Z" fill="#FCE29E"/>
<path d="M544.347 428.937H509.626C509.626 428.937 508.317 423.397 510.601 419.623C512.611 416.305 511.85 414.387 510.357 411.648C511.941 412.287 513.951 412.866 516.205 412.744C517.941 412.652 519.768 411.861 521.383 410.917C522.875 412.622 529.271 419.866 531.281 421.297C533.535 422.971 543.646 422.362 544.347 428.937Z" fill="#2B478B"/>
<path d="M464.885 401.573C468.662 390.859 473.109 377.709 478.713 363.982C477.251 353.602 474.114 344.501 468.814 340.849C468.814 340.849 455.992 380.571 464.885 401.573Z" fill="#FFDB7D"/>
<path d="M504.144 314.063C506.246 329.738 509.17 380.296 523.576 404.404C528.205 412.196 511.88 416.548 511.789 416.518C509.596 415.94 505.941 412.439 504.266 410.948C492.571 400.416 468.845 370.587 468.845 346.693C468.845 335.035 482.551 313.697 491.018 308.036C496.226 304.536 503.292 307.823 504.144 314.063Z" fill="#FCE29E"/>
<path d="M579.311 265.423L543.738 261.648C542.702 261.526 541.727 262.135 541.362 263.109L528.631 296.531C528.083 297.992 529.118 299.574 530.672 299.635L565.971 301.066C566.915 301.096 567.798 300.548 568.194 299.666L581.199 268.619C581.778 267.158 580.834 265.575 579.311 265.423Z" fill="#233862"/>
<path d="M582.387 265.727L546.813 261.953C545.778 261.831 544.803 262.44 544.438 263.414L531.707 296.835C531.159 298.296 532.194 299.879 533.747 299.94L569.047 301.371C569.991 301.401 570.874 300.853 571.27 299.97L584.275 268.923C584.854 267.493 583.909 265.879 582.387 265.727Z" fill="#2B478B"/>
<path d="M562.681 281.342C563.107 280.155 562.498 279.181 561.31 279.181C560.122 279.181 558.782 280.155 558.356 281.342C557.93 282.529 558.539 283.503 559.726 283.503C560.914 283.503 562.254 282.529 562.681 281.342Z" fill="#EBF3FA"/>
<path d="M581.321 268.892C581.534 268.314 581.23 267.827 580.651 267.827C580.072 267.827 579.402 268.314 579.189 268.892C578.976 269.471 579.28 269.958 579.859 269.958C580.468 269.958 581.108 269.471 581.321 268.892Z" fill="#EBF3FA"/>
<path d="M432.845 282.042C432.845 282.042 482.124 300.183 489.525 299.817C494.307 299.574 534.114 285.603 534.114 285.603L537.677 292.36C537.677 292.36 498.967 317.228 488.307 317.106C467.292 316.863 431.81 303.957 427.82 301.431C423.83 298.904 421.211 284.598 432.845 282.042Z" fill="#FFB27D"/>
<path d="M534.113 285.603C534.113 285.603 537.677 280.124 541.24 279.942C544.804 279.789 550.925 282.377 553.027 282.772C555.128 283.168 561.098 285.116 559.331 288.038C557.565 290.96 549.311 291.599 545.748 290.96C542.184 290.321 537.677 292.391 537.677 292.391L534.113 285.603Z" fill="#FFB27D"/>
<path d="M540.266 280.124C540.266 280.124 545.931 277.537 547.545 277.05C549.159 276.563 548.824 277.05 548.368 278.602C547.88 280.124 544.987 281.585 544.987 282.072C544.987 282.559 540.266 280.124 540.266 280.124Z" fill="#FFB27D"/>
<path d="M578.732 282.681C578.732 282.681 575.169 277.05 574.012 276.807C570.448 276.107 570.448 280.794 571.21 283.807C572.032 287.034 574.773 290.108 575.504 289.834C576.265 289.591 579.555 285.664 578.732 282.681Z" fill="#FFB27D"/>
<path d="M578.854 283.807C578.854 283.807 579.981 290.138 573.981 293.426L575.748 289.073L578.854 283.807Z" fill="#FFB27D"/>
<path d="M475.85 260.461C475.85 260.461 473.718 259.609 467.779 260.096C467.779 260.096 468.084 262.409 472.5 262.652C474.967 262.774 475.85 260.461 475.85 260.461Z" fill="white"/>
<path d="M458.216 290.991C458.216 290.991 453.8 304.931 438.663 308.097C438.663 308.097 413.658 300.396 426.114 283.381C426.114 283.381 438.449 274.25 458.216 290.991Z" fill="white"/>
<path d="M360.419 293.942C360.419 301.217 363.495 307.761 368.398 312.388C372.936 316.649 379.028 319.267 385.759 319.267C386.307 319.267 386.855 319.237 387.373 319.206C393.708 318.81 399.434 316.071 403.667 311.84C404.215 311.292 404.763 310.714 405.251 310.105C406.043 309.161 406.774 308.157 407.413 307.092C409.758 303.256 411.098 298.752 411.098 293.942C411.098 286.942 408.266 280.61 403.667 276.045C399.068 271.479 392.764 268.618 385.759 268.618C378.754 268.618 372.419 271.448 367.85 276.045C363.282 280.641 360.419 286.972 360.419 293.942Z" fill="white"/>
<path d="M371.048 305.418C371.505 305.722 371.992 305.996 372.54 306.179C376.5 309.618 382.774 315.158 387.373 319.206C393.708 318.81 399.433 316.071 403.667 311.84C404.215 311.292 404.763 310.714 405.251 310.105C406.043 309.161 406.774 308.157 407.413 307.092C406.865 306.118 406.225 305.144 405.433 304.17C401.352 298.904 398.032 297.108 398.946 290.32C399.433 286.637 397.058 273.579 388.591 272.909C387.89 272.849 383.596 272.118 380.489 273.001C372.967 275.04 362.398 299.452 371.048 305.418Z" fill="#233862"/>
<path d="M379.82 303.957C379.79 303.957 383.353 306.118 386.155 305.54C388.805 304.992 391.515 301.4 391.455 301.4C390.358 301.126 389.353 299.878 389.81 293.364L389.292 293.425L380.795 294.551C380.795 294.551 380.825 297.199 380.673 299.695C380.581 301.796 380.307 303.774 379.82 303.957Z" fill="#FFB27D"/>
<path d="M380.825 294.582C380.825 294.582 380.855 297.23 380.703 299.726C385.393 299.879 388.165 295.769 389.322 293.456L380.825 294.582Z" fill="#ED975D"/>
<path d="M379.119 296.834C379.119 296.834 390.205 297.717 390.662 290.807C391.119 283.898 392.825 279.363 385.759 278.48C378.693 277.628 377.14 280.184 376.439 282.437C375.739 284.72 376.226 296.408 379.119 296.834Z" fill="#FFB27D"/>
<path d="M377.626 278.845C377.626 278.845 383.231 286.272 387.83 287.764C392.428 289.255 394.53 288.129 394.53 288.129C394.53 288.129 392.246 285.237 391.393 281.159C391.149 279.972 390.266 278.998 389.078 278.632C385.819 277.658 379.484 276.136 377.626 278.845Z" fill="#233862"/>
<path d="M382.043 279.271C382.043 279.271 379.241 281.006 378.175 282.498C377.139 283.928 376.104 287.733 376.317 289.347C376.317 289.347 374.246 281.585 377.017 278.632C379.941 275.497 382.043 279.271 382.043 279.271Z" fill="#233862"/>
<path d="M368.399 312.388C372.937 316.649 379.028 319.267 385.759 319.267H387.434C387.403 319.237 387.403 319.237 387.373 319.206C393.708 318.811 399.434 316.071 403.667 311.84C404.216 311.292 404.764 310.714 405.251 310.105C404.368 308.188 403.515 306.635 402.815 305.631C399.677 301.248 390.601 300.7 390.601 300.7C390.571 300.7 390.571 300.73 390.54 300.73C387.099 302.77 384.815 303.409 383.322 303.409C381.129 303.409 380.612 302.009 380.52 301.674C380.52 301.613 380.52 301.613 380.52 301.613C380.52 301.613 373.972 302.709 371.048 305.448C370.439 306.026 369.982 306.666 369.8 307.366C369.556 308.248 369.038 310.075 368.399 312.388Z" fill="#FCE29E"/>
<path d="M137.453 260.157H345.259C351.441 260.157 356.467 255.134 356.467 248.955V191.853C356.467 185.674 351.441 180.652 345.259 180.652H137.453C131.27 180.652 126.245 185.674 126.245 191.853V248.955C126.245 255.134 131.27 260.157 137.453 260.157Z" fill="white"/>
<path d="M247.433 214.866H218.56V218.61H247.433V214.866Z" fill="#CBE1FD"/>
<path d="M254.559 222.353H218.559V226.097H254.559V222.353Z" fill="#CBE1FD"/>
<path d="M283.919 222.353H257.422V226.097H283.919V222.353Z" fill="#CBE1FD"/>
<path d="M245.056 229.659H218.559V233.403H245.056V229.659Z" fill="#CBE1FD"/>
<path d="M269.787 214.865H250.538V218.609H269.787V214.865Z" fill="#CBE1FD"/>
<path d="M312.852 214.865H273.929V218.609H312.852V214.865Z" fill="#CBE1FD"/>
<path d="M259.707 196.329H218.834V201.625H259.707V196.329Z" fill="#CBE1FD"/>
<path d="M320.742 196.328H264.245V201.624H320.742V196.328Z" fill="#CBE1FD"/>
<path d="M259.761 292.999H240.786V295.465H259.761V292.999Z" fill="white"/>
<path d="M264.45 297.93H240.786V300.396H264.45V297.93Z" fill="white"/>
<path d="M283.76 297.93H266.339V300.396H283.76V297.93Z" fill="white"/>
<path d="M258.207 302.739H240.786V305.205H258.207V302.739Z" fill="white"/>
<path d="M274.471 292.999H261.801V295.465H274.471V292.999Z" fill="white"/>
<path d="M302.795 292.999H277.181V295.465H302.795V292.999Z" fill="white"/>
<path d="M267.863 280.824H240.97V284.294H267.863V280.824Z" fill="white"/>
<path d="M307.973 280.823H270.816V284.293H307.973V280.823Z" fill="white"/>
<path d="M286.744 352.446H267.77V354.911H286.744V352.446Z" fill="white"/>
<path d="M291.435 357.346H267.77V359.811H291.435V357.346Z" fill="white"/>
<path d="M310.745 357.346H293.323V359.811H310.745V357.346Z" fill="white"/>
<path d="M285.192 362.154H267.77V364.62H285.192V362.154Z" fill="white"/>
<path d="M301.455 352.445H288.785V354.91H301.455V352.445Z" fill="white"/>
<path d="M329.78 352.445H304.166V354.91H329.78V352.445Z" fill="white"/>
<path d="M294.848 340.239H267.955V343.709H294.848V340.239Z" fill="white"/>
<path d="M334.958 340.239H297.801V343.709H334.958V340.239Z" fill="white"/>
<path d="M405.069 32.4786L402.572 34.2745L400.074 32.509C400.622 31.7176 401.536 31.2002 402.572 31.2002C403.577 31.2002 404.49 31.7176 405.069 32.4786Z" fill="#2B478B"/>
<path d="M402.572 26.8472C400.075 26.8472 397.851 28.0951 396.511 29.9823L398.095 31.0781C399.1 29.6779 400.714 28.7648 402.572 28.7648C404.399 28.7648 406.014 29.6779 407.019 31.0477L408.602 29.9214C407.232 28.0647 405.039 26.8472 402.572 26.8472Z" fill="#2B478B"/>
<path d="M402.572 18.5981C397.272 18.5981 392.612 21.2158 389.749 25.2337L391.333 26.3295C393.831 22.7986 397.942 20.5158 402.572 20.5158C407.171 20.5158 411.252 22.7986 413.749 26.2686L415.302 25.1424C412.47 21.155 407.81 18.5981 402.572 18.5981Z" fill="#2B478B"/>
<path d="M402.572 23.1035C398.795 23.1035 395.475 24.9603 393.435 27.8214L395.019 28.9172C396.694 26.5735 399.465 25.0211 402.572 25.0211C405.648 25.0211 408.389 26.543 410.095 28.8563L411.648 27.7301C409.607 24.9298 406.287 23.1035 402.572 23.1035Z" fill="#2B478B"/>
<path d="M520.988 165.218L510 147.896L523.909 156.406L521.501 158.244L522.724 163.105L520.988 165.218Z" fill="#685ED6"/>
<path d="M510 147.896L524.874 159.726L532.449 174.473L510 147.896Z" fill="#79EFFC"/>
<path d="M523.909 156.407L510.001 147.897L527.363 151.517L523.909 156.407Z" fill="#79EFFC"/>
<g clip-path="url(#clip0_49_53913)">
<path d="M392.956 150.992H219.408V167.542H392.956V150.992Z" fill="white"/>
<path d="M311.481 128.146C311.481 128.146 309.098 130.571 306.714 133.294C305.692 134.4 304.713 135.591 303.862 136.655C301.01 140.229 298.328 141.25 295.178 144.738C293.22 146.908 290.666 148.567 285.898 149.333C281.131 150.099 263.678 151.333 263.678 151.333C263.678 151.333 263.252 149.035 263.55 148.27C263.635 148.057 263.422 147.631 263.124 147.036C262.358 145.504 261.081 143.164 263.55 142.867C266.913 142.484 283.301 138.527 284.068 137.336C284.834 136.145 289.261 130.656 291.645 125.679C294.029 120.701 297.604 114.617 301.265 108.661C304.458 103.428 305.394 103.173 307.097 101.641L309.098 113.809L311.481 128.146Z" fill="#6D9BFF"/>
<path d="M255.675 150.822H244.012V150.312C244.012 147.121 246.608 144.483 249.844 144.483C253.036 144.483 255.675 147.079 255.675 150.312V150.822Z" fill="#A5A5A5"/>
<path d="M256.059 144.186C255.122 143.845 252.27 142.484 250.738 142.484C249.205 142.484 246.651 145.079 245.204 146.355C243.757 147.632 245.757 148.823 246.907 148.227C248.099 147.632 249.205 146.143 250.312 146.185C251.419 146.228 251.93 147.206 252.526 147.419C252.824 147.504 252.994 148.355 252.44 148.738C251.844 149.163 250.525 149.163 250.184 149.376C249.461 149.844 249.929 151.078 251.163 151.078C252.398 151.078 253.42 151.205 254.909 150.908C256.357 150.61 258.187 151.035 259.294 150.567C260.443 150.099 263.636 151.248 263.636 151.248L261.337 144.994C261.337 145.079 257.889 144.909 256.059 144.186Z" fill="#FDD2BB"/>
<path d="M256.91 144.186C257.166 145.121 257.761 145.76 258.23 147.206C259.294 150.312 257.932 150.907 257.932 150.907C257.932 150.907 263.891 151.333 264.955 150.907C264.955 150.907 266.403 149.291 264.955 146.1C263.508 142.909 263.508 142.909 263.508 142.909C263.508 142.909 262.614 142.909 259.975 143.292C257.804 143.59 256.91 144.186 256.91 144.186Z" fill="#2C5CFF"/>
<path d="M340.173 80.7095C340.173 80.7095 338.981 84.1981 338.853 87.2187C338.725 90.2394 338.725 94.4087 339.619 96.0254C340.513 97.6421 349.836 103.088 349.836 103.088C349.836 103.088 339.236 105.3 328.765 104.662C318.293 104.024 316.037 99.5991 316.037 99.5991C316.037 99.5991 323.997 96.4934 324.21 95.6851C324.423 94.8767 325.955 88.878 325.955 88.878L340.173 80.7095Z" fill="#F6C1AA"/>
<path opacity="0.28" d="M339.406 95.4723C338.768 93.6004 338.768 89.9416 338.853 87.2188C338.981 84.1981 340.173 80.7095 340.173 80.7095L325.997 88.7929C325.997 88.7929 324.465 94.8342 324.252 95.6C324.039 96.4083 316.079 99.5141 316.079 99.5141C316.079 99.5141 316.164 99.6842 316.377 99.9395C324.082 98.6632 331.744 97.089 339.406 95.4723Z" fill="#EB9271"/>
<path d="M321.699 79.9863C322.04 77.4762 322.125 68.3292 322.125 68.3292L334.342 64.0322L345.026 69.9884C345.026 69.9884 342.472 78.0718 342.43 80.6245C342.387 83.1772 342.217 86.5807 340.599 89.0057C339.024 91.4308 334.853 95.2172 333.874 95.6852C330.936 97.0466 329.021 96.1106 326.807 94.8343C325.871 94.2812 324.594 91.5158 323.359 88.8781C322.082 86.2404 321.359 82.4965 321.699 79.9863Z" fill="#FDD2BB"/>
<path d="M340.854 73.6471C340.854 73.6471 340.897 76.923 341.748 79.0502C341.918 79.4757 341.791 80.752 341.62 82.2836C342.046 81.773 342.514 81.3051 342.94 80.8371C343.834 79.9011 344.643 78.9651 345.409 77.9866C345.877 76.1147 346.686 73.6045 346.643 72.158C346.558 67.776 346.558 65.3509 338.555 61.4369C337.023 60.7136 333.916 58.6715 332.341 59.2671C329.957 60.1605 329.276 61.0114 327.403 62.5856C327.403 62.5856 324.891 62.075 321.741 65.4786C319.911 67.4782 320.464 70.3712 320.549 72.5409C320.762 76.9655 321.954 76.7103 321.954 76.7103C322.124 74.4554 321.741 73.5194 322.422 70.1159C322.635 68.9672 324.338 68.5843 325.53 68.329C326.637 68.0738 327.02 67.6483 330.723 71.3497C332.937 73.562 334.128 73.3918 340.854 73.6471Z" fill="#5C3000"/>
<path d="M341.153 80.5392C341.748 78.3269 342.685 76.7102 343.707 76.7528C344.686 76.8379 345.707 78.6673 344.473 80.7519C343.238 82.8366 342.43 84.1129 341.748 84.9213C341.067 85.8147 340.769 81.9432 341.153 80.5392Z" fill="#FDD2BB"/>
<path d="M341.748 80.7945C342.089 79.6032 342.642 78.1142 343.536 78.1993C344.43 78.2844 344.558 79.2629 343.323 80.9647C342.089 82.6239 341.833 83.5173 341.833 83.5173C341.833 83.5173 341.578 81.4752 341.748 80.7945Z" fill="#EB9271"/>
<path d="M331.063 125.508C329.743 133.251 329.147 152.269 325.87 150.822C324.082 150.014 318.548 150.056 313.865 150.227C310.034 150.397 306.842 150.652 306.842 150.652C306.842 150.652 306.629 142.058 306.714 133.294C306.757 129.082 306.842 124.87 307.097 121.509C307.182 120.403 307.225 119.339 307.267 118.318C307.565 108.491 305.948 102.79 307.097 101.683C308.374 100.45 323.23 96.7058 323.954 94.9189L325.061 100.152C327.785 104.491 331.318 103.173 331.318 103.173C331.318 103.173 332.382 117.765 331.063 125.508Z" fill="#6D9BFF"/>
<path d="M327.572 104.619C326.848 108.916 326.678 112.277 325.444 120.531C324.209 128.784 324.805 132.188 324.252 137.378C323.698 142.569 322.677 150.269 322.677 150.269L331.573 151.588C331.573 151.588 331.871 136.698 332.34 126.232C332.808 115.766 334.553 106.449 334.553 106.449L335.745 100.067C335.745 100.067 332.467 103.556 329.062 103.215C325.614 102.79 327.572 104.619 327.572 104.619Z" fill="#2C5CFF"/>
<path d="M354.177 110.788C353.837 113.979 355.327 117.935 354.646 122.403C354.177 125.381 353.581 128.997 352.943 132.613C352.049 137.761 352.56 150.78 352.56 150.78C352.56 150.78 332.255 150.056 328.807 151.035C325.402 151.971 327.53 133.081 327.317 125.211C327.104 117.34 330.297 103.13 330.297 103.13C330.297 103.13 332.936 103.13 336.98 99.9818C339.492 98.0673 339.917 95.5146 339.917 95.5146C340.386 97.3441 354.22 101.513 355.327 102.96C355.497 103.173 355.625 103.598 355.71 104.151C355.838 105.555 354.475 107.81 354.177 110.788Z" fill="#6D9BFF"/>
<path d="M330.254 103.13C331.488 102.79 335.617 100.492 337.15 98.4504C338.682 96.4082 339.108 94.1108 339.108 94.1108C339.108 94.1108 340.555 96.4508 340.725 97.9398C340.895 99.4289 337.405 106.661 336.766 108.661C336.766 108.661 335.66 108.448 333.616 106.704C331.573 104.96 330.254 103.13 330.254 103.13Z" fill="#2C5CFF"/>
<path d="M324.465 94.7061C324.465 94.7061 323.784 95.7271 325.316 98.2372C326.849 100.747 330.211 103.172 330.211 103.172L324.763 108.448C324.763 108.448 323.486 105.3 322.72 102.577C321.953 99.8539 322.081 96.9609 322.464 96.11C322.89 95.3017 324.465 94.7061 324.465 94.7061Z" fill="#2C5CFF"/>
<path d="M331.871 114.83C331.828 115.638 331.147 116.191 330.339 116.149C329.53 116.106 328.976 115.425 329.019 114.617C329.062 113.809 329.743 113.256 330.551 113.298C331.36 113.341 331.956 114.021 331.871 114.83Z" fill="#2C5CFF"/>
<path d="M330.765 130.146C330.722 130.955 330.041 131.508 329.232 131.465C328.424 131.423 327.87 130.742 327.913 129.933C327.955 129.125 328.636 128.572 329.445 128.615C330.254 128.657 330.85 129.338 330.765 130.146Z" fill="#2C5CFF"/>
<path d="M329.658 145.419C329.615 146.227 328.934 146.781 328.125 146.738C327.316 146.695 326.763 146.015 326.805 145.206C326.848 144.398 327.529 143.845 328.338 143.888C329.147 143.973 329.743 144.653 329.658 145.419Z" fill="#2C5CFF"/>
<path d="M337.916 120.488C341.449 120.786 345.323 121.211 346.812 121.041V123.296C346.812 123.296 343.279 122.913 340.172 122.913C335.745 122.913 335.745 122.913 335.745 122.913L336.128 120.488C336.128 120.488 336.085 120.36 337.916 120.488Z" fill="#2C5CFF"/>
<path d="M310.162 148.567H290.666V150.822H310.162V148.567Z" fill="#E9EBEE"/>
<path d="M335.235 148.567H310.12V150.822H335.235V148.567Z" fill="#E9EBEE"/>
<path d="M311.482 147.588V148.567H312.674H314.972V147.588H312.674H311.482Z" fill="#D5D5D7"/>
<path d="M307.097 147.588V148.567H308.289H310.587V147.588H308.289H307.097Z" fill="#D5D5D7"/>
<path d="M302.712 147.588V148.567H303.904H306.203V147.588H303.904H302.712Z" fill="#D5D5D7"/>
<path d="M298.328 147.588V148.567H299.52H301.818V147.588H299.52H298.328Z" fill="#D5D5D7"/>
<path d="M330.509 147.588H329.275V148.567H330.509H332.765V147.588H330.509Z" fill="#D5D5D7"/>
<path d="M324.89 147.588V148.567H326.125H328.381V147.588H326.125H324.89Z" fill="#D5D5D7"/>
<path d="M320.506 147.588V148.567H321.74H323.996V147.588H321.74H320.506Z" fill="#D5D5D7"/>
<path d="M316.121 147.588V148.567H317.356H319.612V147.588H317.356H316.121Z" fill="#D5D5D7"/>
<path d="M293.943 147.589V148.567H295.135H297.434V147.589H295.135H293.943Z" fill="#D5D5D7"/>
<path d="M296.966 87.0483H228.134C227.027 87.0483 226.175 87.9418 226.303 89.0905L231.113 135.676C231.241 136.783 232.22 137.719 233.369 137.719H302.201C303.308 137.719 304.159 136.825 304.032 135.676L299.222 89.0905C299.094 87.9418 298.072 87.0483 296.966 87.0483Z" fill="#FAFCFF"/>
<path d="M296.966 87.0483H228.134C227.027 87.0483 226.175 87.9418 226.303 89.0905L231.113 135.676C231.241 136.783 232.22 137.719 233.369 137.719H302.201C303.308 137.719 304.159 136.825 304.032 135.676L299.222 89.0905C299.094 87.9418 298.072 87.0483 296.966 87.0483Z" fill="#6B6B6B"/>
<path d="M295.689 87.0483H226.857C225.751 87.0483 224.899 87.9418 224.984 89.0905L229.114 135.676C229.199 136.783 230.22 137.719 231.327 137.719H300.159C301.266 137.719 302.117 136.825 302.032 135.676L297.903 89.0905C297.818 87.9418 296.796 87.0483 295.689 87.0483Z" fill="#D5D5D7"/>
<path d="M284.111 133.932C283.685 133.932 283.26 133.592 283.217 133.124L282.877 129.295C282.834 128.869 283.175 128.486 283.6 128.486C284.026 128.486 284.452 128.827 284.494 129.295L284.835 133.124C284.877 133.592 284.579 133.932 284.111 133.932Z" fill="#E9EBEE"/>
<path d="M286.665 133.932C286.239 133.932 285.813 133.591 285.771 133.123L285.43 129.294C285.388 128.869 285.728 128.486 286.154 128.486C286.579 128.486 287.005 128.826 287.048 129.294L287.388 133.123C287.431 133.591 287.133 133.932 286.665 133.932Z" fill="#E9EBEE"/>
<path d="M289.219 133.932C288.793 133.932 288.367 133.591 288.325 133.123L287.984 129.294C287.942 128.869 288.282 128.486 288.708 128.486C289.134 128.486 289.559 128.826 289.602 129.294L289.943 133.123C289.985 133.591 289.645 133.932 289.219 133.932Z" fill="#E9EBEE"/>
<path d="M291.773 133.932C291.347 133.932 290.922 133.591 290.879 133.123L290.539 129.294C290.496 128.869 290.837 128.486 291.262 128.486C291.688 128.486 292.114 128.826 292.156 129.294L292.497 133.123C292.539 133.591 292.199 133.932 291.773 133.932Z" fill="#E9EBEE"/>
<path d="M294.327 133.932C293.901 133.932 293.476 133.591 293.433 133.123L293.092 129.294C293.05 128.869 293.39 128.486 293.816 128.486C294.242 128.486 294.667 128.826 294.71 129.294L295.051 133.123C295.093 133.591 294.753 133.932 294.327 133.932Z" fill="#E9EBEE"/>
<path d="M279.556 149.206H269.978V150.992L279.556 151.29V149.206Z" fill="#6B6B6B"/>
<path d="M266.403 141.122L268.829 112.405H258.315L253.76 140.824C253.121 144.1 254.143 147.589 256.186 149.163L258.528 150.992H271.511L271.298 149.206C267.509 147.759 265.977 144.27 266.403 141.122Z" fill="#6B6B6B"/>
<path d="M264.87 141.123L267.296 112.405H256.782L252.227 140.825C251.589 144.101 252.61 147.589 254.653 149.164L256.995 150.993H269.978L267.381 148.993C265.466 147.504 264.444 144.271 264.87 141.123Z" fill="#A5A5A5"/>
<path d="M265.083 145.164H252.27C252.653 146.823 253.504 148.312 254.611 149.163L256.952 150.992H269.935L267.339 148.993C266.317 148.142 265.508 146.78 265.083 145.164Z" fill="#6B6B6B"/>
<path d="M372.013 144.568C372.013 144.568 368.054 142.399 364.862 140.952C361.669 139.506 357.029 142.101 357.029 142.101C357.029 142.101 356.476 140.612 355.667 138.74C354.858 136.783 353.837 134.4 352.9 132.656C352.39 131.635 351.921 130.869 351.538 130.486C349.921 128.784 350.091 126.785 349.623 125.806C349.623 125.764 349.58 125.721 349.58 125.679C349.239 124.402 350.133 119.212 351.112 114.489C352.134 109.597 353.496 101.981 353.496 101.981C353.965 102.407 355.582 102.79 356.433 103.811C356.433 103.811 362.223 112.575 364.649 118.616C369.076 129.593 369.8 131.848 370.523 135.889C371.332 139.888 372.013 144.568 372.013 144.568Z" fill="#6D9BFF"/>
<path d="M322.422 146.823C325.827 146.142 328.339 147.802 330.467 147.929C332.596 148.057 340.215 147.249 340.215 147.249L338.513 143.335C338.513 143.335 329.829 143.164 326.892 144.143C323.954 145.121 322.422 146.823 322.422 146.823Z" fill="#FDD2BB"/>
<path d="M340.258 142.782C340.258 142.782 335.746 141.973 333.575 141.931C329.914 141.846 325.785 141.846 324.933 142.526C324.082 143.207 319.698 148.185 319.102 148.993C318.506 149.801 318.804 150.737 320.634 150.099C322.464 149.461 325.487 145.972 327.317 145.164C329.148 144.356 332.553 145.036 332.553 145.036L339.321 144.398L340.258 142.782Z" fill="#FDD2BB"/>
<path opacity="0.28" d="M334.937 142.017C329.531 143.336 324.252 145.123 319.698 148.229C319.4 148.569 319.187 148.867 319.059 148.994C318.463 149.803 318.761 150.739 320.592 150.101C322.422 149.462 325.444 145.974 327.275 145.165C329.105 144.357 332.511 145.038 332.511 145.038L339.279 144.4L340.215 142.783C340.258 142.783 337.236 142.272 334.937 142.017Z" fill="#EB9271"/>
<path d="M335.746 142.952C335.746 142.952 329.446 142.526 327.828 142.356C326.168 142.186 324.891 143.547 323.997 145.164C323.061 146.781 321.188 149.589 321.613 150.397C321.997 151.248 323.061 151.163 323.912 150.227C324.806 149.291 325.955 146.951 327.19 146.483C328.424 146.015 332.596 145.036 332.596 145.036L335.746 142.952Z" fill="#FDD2BB"/>
<path opacity="0.28" d="M327.914 143.973C325.317 145.079 323.019 151.121 323.913 150.227C324.806 149.291 325.956 146.951 327.19 146.483C328.425 146.015 332.596 145.037 332.596 145.037L335.789 142.91C335.789 142.91 334.214 142.782 332.426 142.654C330.851 142.952 329.361 143.378 327.914 143.973Z" fill="#EB9271"/>
<path d="M346.813 148.568C346.813 148.568 343.578 148.355 342.429 149.461C341.28 150.567 340.13 151.078 339.066 150.95C337.959 150.823 336.001 149.844 335.107 149.291C334.213 148.738 331.319 150.61 330.425 151.035C329.488 151.503 328.679 150.695 329.105 149.716C329.573 148.738 330.51 147.802 331.276 147.419C332.042 147.036 335.32 146.228 335.32 146.228H335.277H335.235C334.852 146.185 333.362 146.015 332.383 146.058C331.276 146.143 330.127 146.823 329.063 148.185C328.041 149.546 326.934 151.078 326.338 151.333C326.168 151.418 325.955 151.376 325.785 151.163C325.402 150.78 325.232 149.929 325.742 148.823C326.509 147.206 328.467 144.654 329.488 143.377C330.51 142.101 332.042 141.973 333.532 141.931C334.98 141.888 338.385 141.888 338.385 141.888C338.385 141.888 342.131 141.803 344.217 141.803C345.494 141.846 346.813 148.568 346.813 148.568Z" fill="#FDD2BB"/>
<path opacity="0.28" d="M344.259 141.846C343.791 141.846 343.28 141.846 342.727 141.846C342.77 144.483 342.599 147.121 342.174 149.716C342.259 149.631 342.344 149.546 342.472 149.461C343.621 148.355 346.856 148.568 346.856 148.568C346.856 148.568 345.494 141.846 344.259 141.846Z" fill="#EB9271"/>
<path opacity="0.28" d="M335.32 146.185H335.278H335.235C334.852 146.143 333.362 145.973 332.383 146.015C331.276 146.1 330.127 146.781 329.063 148.142C328.041 149.504 326.935 151.035 326.339 151.291C326.168 151.376 325.955 151.333 325.785 151.12C326.892 149.759 328.041 147.674 328.595 146.738C329.446 145.292 331.915 145.037 332.553 145.037C333.149 145.037 335.32 146.185 335.32 146.185Z" fill="#EB9271"/>
<path d="M359.711 136.06C359.711 136.06 356.518 138.527 352.091 139.889C347.239 141.378 344.259 141.846 344.259 141.846C344.259 141.846 344.6 145.845 344.727 150.014C344.727 150.014 355.369 151.673 362.308 150.354C369.246 148.993 370.991 149.248 372.141 146.228C373.29 143.207 371.375 137.293 370.481 134.698C369.587 132.06 364.01 134.103 359.711 136.06Z" fill="#6D9BFF"/>
<path d="M342.982 141.803C344.132 143.335 344.089 145.632 344.387 148.823C344.6 151.035 343.834 150.993 343.834 150.993L349.666 150.822C349.666 150.822 350.304 147.461 349.41 144.356C348.474 141.25 348.474 141.25 348.474 141.25L342.982 141.803Z" fill="#2C5CFF"/>
<path d="M378.185 138.101C378.313 137.25 378.994 136.485 379.846 136.229C380.484 136.059 381.208 136.102 381.676 135.634C382.187 135.123 381.974 134.272 381.974 133.549C381.974 132.102 382.91 130.741 384.273 130.231C384.869 130.018 385.55 129.975 386.018 129.55C386.486 129.124 386.656 128.444 386.827 127.805C387.295 126.231 388.274 124.87 389.551 123.849C390.104 123.423 390.786 123.083 391.424 123.253C391.935 123.423 392.318 123.891 392.446 124.402C392.573 124.912 392.488 125.466 392.318 125.976C391.637 127.891 389.679 129.252 389.253 131.252C389.04 132.23 389.253 133.294 389.04 134.272C388.785 135.421 387.976 136.399 386.912 136.867C386.401 137.08 385.763 137.208 385.422 137.676C385.039 138.186 385.167 138.952 385.081 139.59C384.911 140.994 383.549 142.058 382.144 142.143C380.74 142.228 379.377 141.377 378.611 140.228C378.526 140.271 378.058 138.995 378.185 138.101Z" fill="#4BBD6D"/>
<path d="M384.698 136.74C385.209 136.102 385.294 135.208 384.953 134.485C384.698 133.975 384.187 133.464 384.23 132.911C384.272 132.273 384.953 131.89 385.464 131.422C386.443 130.571 386.784 129.039 386.273 127.848C385.209 125.296 387.507 123.083 387.294 120.36C387.252 119.765 387.082 119.084 386.528 118.744C386.103 118.488 385.549 118.531 385.124 118.786C384.698 118.999 384.4 119.424 384.144 119.85C383.421 121.211 383.421 122.658 382.953 124.062C382.484 125.381 381.378 126.061 380.611 127.168C380.015 128.018 379.845 129.21 380.186 130.188C380.356 130.699 380.654 131.167 380.526 131.677C380.399 132.273 379.845 132.613 379.462 133.081C378.653 134.06 378.738 135.634 379.547 136.612C380.356 137.591 381.761 138.016 382.995 137.804C383.038 137.804 384.187 137.336 384.698 136.74Z" fill="#44AB63"/>
<path d="M384.017 138.314C383.932 137.591 383.378 136.91 382.655 136.698C382.144 136.527 381.505 136.57 381.122 136.144C380.739 135.676 380.909 134.996 380.952 134.4C380.995 133.209 380.228 132.018 379.079 131.592C378.568 131.422 378.015 131.337 377.632 130.997C377.249 130.614 377.121 130.061 376.993 129.55C376.61 128.231 375.844 127.04 374.78 126.189C374.354 125.849 373.758 125.508 373.205 125.679C372.779 125.806 372.438 126.189 372.353 126.615C372.226 127.04 372.311 127.508 372.438 127.933C372.992 129.55 374.609 130.741 374.907 132.401C375.078 133.251 374.865 134.102 375.035 134.953C375.205 135.889 375.886 136.74 376.78 137.166C377.206 137.378 377.717 137.506 378.015 137.889C378.313 138.357 378.185 138.952 378.27 139.505C378.398 140.654 379.505 141.59 380.654 141.675C381.846 141.76 382.995 141.122 383.676 140.144C383.634 140.101 384.102 139.037 384.017 138.314Z" fill="#44AB63"/>
<path d="M376.695 134.57C376.525 133.974 376.057 133.507 375.844 132.953C375.418 131.975 375.674 130.826 376.099 129.805C376.44 129.082 376.865 128.316 376.823 127.55C376.78 127.04 376.567 126.572 376.397 126.104C376.057 124.955 376.099 123.721 376.184 122.53C376.227 121.807 376.269 121.041 376.567 120.403C376.865 119.722 377.419 119.127 378.142 118.999C379.122 118.829 380.101 119.595 380.441 120.531C380.824 121.466 380.739 122.488 380.611 123.466C380.484 124.445 380.356 125.466 380.654 126.444C380.952 127.55 381.761 128.401 382.229 129.465C382.782 130.741 382.655 132.315 381.974 133.507C381.633 134.102 381.122 134.655 380.909 135.336C380.484 136.74 381.378 138.229 381.548 139.675C381.676 140.611 381.463 141.632 380.824 142.313C379.419 143.93 377.078 142.824 376.567 140.994C376.312 140.058 376.014 138.867 376.142 137.889C376.269 136.782 377.036 135.719 376.695 134.57Z" fill="#4BBD6D"/>
<path d="M386.443 150.992H377.078L373.971 135.932H389.55L386.443 150.992Z" fill="#D5D5D7"/>
<path d="M395.234 151.268H214.747V157.096H395.234V151.268Z" stroke="#D4DBF1" stroke-width="0.282631" stroke-miterlimit="10"/>
</g>
<circle cx="175" cy="221" r="30" fill="#CBE1FD"/>
<mask id="mask0_49_53913" style="mask-type:alpha" maskUnits="userSpaceOnUse" x="145" y="191" width="60" height="60">
<path d="M205 221.031C205 226.736 203.405 232.074 200.644 236.613C199.877 237.871 199.018 239.067 198.098 240.172C197.515 240.877 196.871 241.583 196.227 242.227C194.632 243.822 192.883 245.233 190.951 246.429C186.84 249.006 182.055 250.632 176.932 250.939C176.288 250.969 175.644 251 175 251C168.896 251 163.19 249.159 158.466 246.031C157.024 245.08 155.705 244.037 154.448 242.871C152.178 240.755 150.245 238.27 148.742 235.54C146.35 231.245 145 226.276 145 221C145 212.718 148.343 205.202 153.804 199.773C159.233 194.344 166.718 191 175.031 191C183.313 191 190.828 194.344 196.258 199.773C201.656 205.264 205 212.748 205 221.031Z" fill="#DFEBFD"/>
</mask>
<g mask="url(#mask0_49_53913)">
<path d="M161.596 240.954C161.596 240.954 159.99 242.589 158.385 244.424C157.697 245.169 157.037 245.972 156.464 246.689C154.543 249.097 152.737 249.785 150.615 252.136C149.296 253.599 147.576 254.717 144.365 255.233C141.154 255.749 129.399 256.581 129.399 256.581C129.399 256.581 129.113 255.032 129.313 254.516C129.371 254.373 129.227 254.086 129.026 253.685C128.51 252.652 127.65 251.076 129.313 250.875C131.578 250.617 142.616 247.95 143.132 247.147C143.648 246.345 146.63 242.646 148.236 239.291C149.841 235.937 152.249 231.837 154.715 227.823C156.865 224.296 157.496 224.124 158.643 223.092L159.99 231.292L161.596 240.954Z" fill="#6D9BFF"/>
<path d="M180.921 208.984C180.921 208.984 180.119 211.335 180.033 213.371C179.947 215.406 179.947 218.216 180.549 219.306C181.151 220.395 187.429 224.065 187.429 224.065C187.429 224.065 180.291 225.556 173.238 225.126C166.185 224.696 164.665 221.714 164.665 221.714C164.665 221.714 170.027 219.621 170.17 219.076C170.313 218.532 171.345 214.489 171.345 214.489L180.921 208.984Z" fill="#F6C1AA"/>
<path opacity="0.28" d="M180.405 218.933C179.975 217.671 179.975 215.206 180.032 213.371C180.118 211.335 180.921 208.984 180.921 208.984L171.374 214.432C171.374 214.432 170.342 218.503 170.198 219.019C170.055 219.564 164.694 221.657 164.694 221.657C164.694 221.657 164.751 221.772 164.894 221.944C170.084 221.083 175.244 220.023 180.405 218.933Z" fill="#EB9271"/>
<path d="M168.479 208.497C168.708 206.805 168.766 200.64 168.766 200.64L176.994 197.745L184.19 201.759C184.19 201.759 182.47 207.206 182.441 208.927C182.413 210.647 182.298 212.941 181.208 214.575C180.148 216.209 177.338 218.761 176.679 219.077C174.7 219.994 173.41 219.363 171.919 218.503C171.288 218.13 170.428 216.267 169.597 214.489C168.737 212.711 168.249 210.188 168.479 208.497Z" fill="#FDD2BB"/>
<path d="M181.38 204.225C181.38 204.225 181.409 206.433 181.982 207.866C182.097 208.153 182.011 209.013 181.896 210.045C182.183 209.701 182.498 209.386 182.785 209.07C183.387 208.44 183.932 207.809 184.448 207.149C184.763 205.888 185.308 204.196 185.279 203.221C185.222 200.268 185.222 198.634 179.832 195.996C178.8 195.509 176.707 194.132 175.646 194.534C174.041 195.136 173.582 195.709 172.32 196.77C172.32 196.77 170.629 196.426 168.507 198.72C167.274 200.068 167.647 202.017 167.704 203.479C167.848 206.461 168.651 206.289 168.651 206.289C168.765 204.77 169.349 204.832 169.807 202.538C169.951 201.764 170.158 201.557 170.961 201.384C171.707 201.212 172.062 200.182 174.557 202.677C176.048 204.168 176.85 204.053 181.38 204.225Z" fill="#5C3000"/>
<path d="M181.581 208.87C181.983 207.379 182.613 206.29 183.302 206.318C183.961 206.376 184.649 207.609 183.818 209.014C182.986 210.418 182.441 211.279 181.983 211.823C181.524 212.426 181.323 209.816 181.581 208.87Z" fill="#FDD2BB"/>
<path d="M181.981 209.042C182.211 208.239 182.584 207.236 183.186 207.293C183.788 207.35 183.874 208.01 183.042 209.157C182.211 210.275 182.039 210.877 182.039 210.877C182.039 210.877 181.867 209.501 181.981 209.042Z" fill="#EB9271"/>
<path d="M174.786 239.176C173.897 244.394 173.496 257.211 171.288 256.236C170.084 255.691 166.357 255.72 163.203 255.835C160.623 255.949 158.472 256.121 158.472 256.121C158.472 256.121 158.329 250.329 158.386 244.423C158.415 241.585 158.472 238.746 158.644 236.481C158.702 235.736 158.73 235.019 158.759 234.331C158.96 227.707 157.87 223.865 158.644 223.12C159.504 222.288 169.51 219.765 169.998 218.561L170.743 222.088C172.578 225.012 174.958 224.123 174.958 224.123C174.958 224.123 175.674 233.958 174.786 239.176Z" fill="#6D9BFF"/>
<path d="M172.434 225.098C171.947 227.994 171.832 230.259 171.001 235.821C170.169 241.384 170.571 243.678 170.198 247.176C169.825 250.673 169.137 255.863 169.137 255.863L175.129 256.752C175.129 256.752 175.33 246.717 175.645 239.663C175.961 232.61 177.136 226.331 177.136 226.331L177.939 222.03C177.939 222.03 175.732 224.381 173.438 224.152C171.116 223.865 172.434 225.098 172.434 225.098Z" fill="#2C5CFF"/>
<path d="M190.353 229.255C190.124 231.406 191.128 234.072 190.669 237.083C190.353 239.09 189.952 241.527 189.522 243.964C188.92 247.433 189.264 256.207 189.264 256.207C189.264 256.207 175.588 255.719 173.266 256.379C170.972 257.01 172.406 244.279 172.262 238.975C172.119 233.671 174.269 224.094 174.269 224.094C174.269 224.094 176.047 224.094 178.771 221.972C180.462 220.682 180.749 218.962 180.749 218.962C181.064 220.195 190.382 223.005 191.128 223.979C191.242 224.123 191.328 224.41 191.386 224.782C191.472 225.728 190.554 227.248 190.353 229.255Z" fill="#6D9BFF"/>
<path d="M174.241 224.095C175.072 223.865 177.853 222.317 178.885 220.941C179.918 219.564 180.204 218.016 180.204 218.016C180.204 218.016 181.179 219.593 181.294 220.597C181.408 221.6 179.057 226.474 178.627 227.822C178.627 227.822 177.882 227.679 176.506 226.503C175.13 225.327 174.241 224.095 174.241 224.095Z" fill="#2C5CFF"/>
<path d="M170.342 218.417C170.342 218.417 169.884 219.106 170.916 220.797C171.948 222.489 174.213 224.123 174.213 224.123L170.543 227.679C170.543 227.679 169.683 225.557 169.167 223.722C168.651 221.887 168.737 219.937 168.995 219.364C169.282 218.819 170.342 218.417 170.342 218.417Z" fill="#2C5CFF"/>
<path d="M175.33 231.98C175.301 232.524 174.842 232.897 174.298 232.868C173.753 232.84 173.38 232.381 173.409 231.836C173.438 231.291 173.896 230.919 174.441 230.947C174.986 230.976 175.387 231.435 175.33 231.98Z" fill="#2C5CFF"/>
<path d="M174.585 242.302C174.556 242.847 174.097 243.219 173.553 243.191C173.008 243.162 172.635 242.703 172.664 242.158C172.693 241.614 173.151 241.241 173.696 241.27C174.241 241.298 174.642 241.757 174.585 242.302Z" fill="#2C5CFF"/>
<path d="M179.401 235.793C181.781 235.993 184.39 236.28 185.394 236.165V237.685C185.394 237.685 183.014 237.427 180.921 237.427C177.939 237.427 177.939 237.427 177.939 237.427L178.197 235.793C178.197 235.793 178.169 235.707 179.401 235.793Z" fill="#2C5CFF"/>
<path d="M202.366 252.021C202.366 252.021 199.7 250.559 197.549 249.584C195.399 248.609 192.274 250.358 192.274 250.358C192.274 250.358 191.901 249.355 191.357 248.093C190.812 246.774 190.124 245.169 189.493 243.993C189.149 243.305 188.834 242.789 188.576 242.531C187.486 241.384 187.601 240.037 187.285 239.377C187.285 239.348 187.257 239.32 187.257 239.291C187.027 238.431 187.629 234.933 188.289 231.75C188.977 228.453 189.894 223.321 189.894 223.321C190.21 223.608 191.299 223.866 191.873 224.554C191.873 224.554 195.772 230.46 197.406 234.532C200.388 241.929 200.875 243.448 201.362 246.172C201.907 248.867 202.366 252.021 202.366 252.021Z" fill="#6D9BFF"/>
<path d="M194.081 246.287C194.081 246.287 191.931 247.95 188.949 248.868C185.681 249.871 183.674 250.186 183.674 250.186C183.674 250.186 183.903 252.882 183.989 255.691C183.989 255.691 191.157 256.81 195.83 255.921C200.503 255.003 201.679 255.175 202.453 253.14C203.227 251.104 201.937 247.119 201.335 245.37C200.732 243.592 196.977 244.968 194.081 246.287Z" fill="#6D9BFF"/>
<path d="M182.813 250.158C183.587 251.19 183.558 252.738 183.759 254.889C183.902 256.38 183.386 256.351 183.386 256.351L187.314 256.236C187.314 256.236 187.744 253.971 187.142 251.878C186.511 249.785 186.511 249.785 186.511 249.785L182.813 250.158Z" fill="#2C5CFF"/>
</g>
<circle cx="233" cy="354" r="24" fill="white"/>
<mask id="mask1_49_53913" style="mask-type:alpha" maskUnits="userSpaceOnUse" x="209" y="330" width="48" height="48">
<path d="M257 354.025C257 358.589 255.724 362.859 253.515 366.491C252.902 367.497 252.215 368.454 251.478 369.337C251.012 369.902 250.497 370.466 249.982 370.982C248.705 372.258 247.307 373.386 245.761 374.344C242.472 376.405 238.644 377.706 234.546 377.951C234.031 377.975 233.515 378 233 378C228.117 378 223.552 376.528 219.773 374.025C218.62 373.264 217.564 372.429 216.558 371.497C214.742 369.804 213.196 367.816 211.994 365.632C210.08 362.196 209 358.221 209 354C209 347.374 211.675 341.362 216.043 337.018C220.386 332.675 226.374 330 233.025 330C239.65 330 245.663 332.675 250.006 337.018C254.325 341.411 257 347.399 257 354.025Z" fill="#DFEBFD"/>
</mask>
<g mask="url(#mask1_49_53913)">
<path d="M222.359 369.885C222.359 369.885 221.074 371.193 219.79 372.661C219.24 373.257 218.712 373.899 218.253 374.473C216.717 376.4 215.272 376.95 213.574 378.831C212.519 380.001 211.143 380.895 208.574 381.308C206.005 381.721 196.601 382.386 196.601 382.386C196.601 382.386 196.372 381.148 196.533 380.735C196.578 380.62 196.464 380.391 196.303 380.069C195.89 379.244 195.202 377.982 196.533 377.822C198.345 377.615 207.175 375.482 207.588 374.84C208.001 374.198 210.386 371.239 211.671 368.555C212.955 365.871 214.882 362.591 216.854 359.38C218.574 356.559 219.079 356.421 219.996 355.595L221.074 362.155L222.359 369.885Z" fill="#6D9BFF"/>
<path d="M237.819 344.31C237.819 344.31 237.177 346.19 237.108 347.819C237.04 349.448 237.04 351.695 237.521 352.567C238.003 353.439 243.026 356.375 243.026 356.375C243.026 356.375 237.315 357.567 231.672 357.223C226.03 356.879 224.815 354.494 224.815 354.494C224.815 354.494 229.104 352.819 229.218 352.384C229.333 351.948 230.159 348.714 230.159 348.714L237.819 344.31Z" fill="#F6C1AA"/>
<path opacity="0.28" d="M237.406 352.269C237.062 351.26 237.062 349.287 237.108 347.819C237.177 346.19 237.819 344.31 237.819 344.31L230.182 348.668C230.182 348.668 229.356 351.925 229.241 352.338C229.126 352.773 224.837 354.448 224.837 354.448C224.837 354.448 224.883 354.54 224.998 354.677C229.149 353.989 233.278 353.141 237.406 352.269Z" fill="#EB9271"/>
<path d="M227.865 343.92C228.049 342.567 228.094 337.635 228.094 337.635L234.677 335.318L240.434 338.53C240.434 338.53 239.058 342.888 239.035 344.264C239.012 345.64 238.92 347.475 238.049 348.783C237.2 350.09 234.952 352.132 234.425 352.384C232.842 353.118 231.81 352.613 230.617 351.925C230.113 351.627 229.425 350.136 228.76 348.714C228.071 347.292 227.682 345.273 227.865 343.92Z" fill="#FDD2BB"/>
<path d="M238.187 340.502C238.187 340.502 238.209 342.268 238.668 343.415C238.76 343.645 238.691 344.333 238.599 345.158C238.829 344.883 239.081 344.631 239.31 344.379C239.792 343.874 240.228 343.369 240.641 342.842C240.893 341.833 241.329 340.479 241.306 339.699C241.26 337.337 241.26 336.029 236.948 333.919C236.122 333.529 234.448 332.428 233.599 332.749C232.315 333.231 231.948 333.69 230.939 334.538C230.939 334.538 229.585 334.263 227.888 336.098C226.902 337.176 227.2 338.736 227.246 339.906C227.361 342.291 228.003 342.154 228.003 342.154C228.095 340.938 228.561 340.988 228.928 339.153C229.043 338.534 229.209 338.367 229.851 338.23C230.448 338.092 230.732 337.268 232.728 339.264C233.92 340.456 234.563 340.365 238.187 340.502Z" fill="#5C3000"/>
<path d="M238.347 344.219C238.668 343.026 239.173 342.154 239.723 342.177C240.251 342.223 240.801 343.209 240.136 344.333C239.471 345.457 239.035 346.145 238.668 346.581C238.301 347.063 238.141 344.976 238.347 344.219Z" fill="#FDD2BB"/>
<path d="M238.668 344.356C238.851 343.714 239.15 342.911 239.631 342.957C240.113 343.003 240.182 343.53 239.516 344.448C238.851 345.342 238.714 345.824 238.714 345.824C238.714 345.824 238.576 344.723 238.668 344.356Z" fill="#EB9271"/>
<path d="M232.91 368.463C232.199 372.637 231.878 382.89 230.112 382.111C229.149 381.675 226.167 381.698 223.644 381.789C221.58 381.881 219.86 382.019 219.86 382.019C219.86 382.019 219.745 377.385 219.791 372.66C219.814 370.39 219.86 368.119 219.997 366.307C220.043 365.71 220.066 365.137 220.089 364.586C220.25 359.288 219.378 356.214 219.997 355.618C220.685 354.953 228.69 352.934 229.08 351.971L229.676 354.792C231.144 357.132 233.048 356.421 233.048 356.421C233.048 356.421 233.621 364.288 232.91 368.463Z" fill="#6D9BFF"/>
<path d="M231.029 357.201C230.639 359.518 230.548 361.33 229.883 365.78C229.217 370.229 229.538 372.064 229.24 374.863C228.942 377.661 228.392 381.813 228.392 381.813L233.185 382.524C233.185 382.524 233.346 374.496 233.598 368.853C233.85 363.211 234.791 358.187 234.791 358.187L235.433 354.747C235.433 354.747 233.667 356.627 231.832 356.444C229.974 356.215 231.029 357.201 231.029 357.201Z" fill="#2C5CFF"/>
<path d="M245.364 360.527C245.181 362.247 245.984 364.38 245.617 366.788C245.364 368.394 245.043 370.344 244.699 372.293C244.218 375.069 244.493 382.088 244.493 382.088C244.493 382.088 233.552 381.698 231.694 382.225C229.86 382.73 231.006 372.546 230.892 368.302C230.777 364.059 232.497 356.398 232.497 356.398C232.497 356.398 233.919 356.398 236.098 354.7C237.451 353.668 237.681 352.292 237.681 352.292C237.933 353.278 245.387 355.526 245.984 356.306C246.075 356.421 246.144 356.65 246.19 356.948C246.259 357.705 245.525 358.921 245.364 360.527Z" fill="#6D9BFF"/>
<path d="M232.474 356.398C233.14 356.214 235.364 354.976 236.19 353.875C237.016 352.774 237.245 351.535 237.245 351.535C237.245 351.535 238.025 352.797 238.117 353.6C238.209 354.402 236.328 358.302 235.984 359.38C235.984 359.38 235.387 359.265 234.286 358.325C233.185 357.384 232.474 356.398 232.474 356.398Z" fill="#2C5CFF"/>
<path d="M229.356 351.856C229.356 351.856 228.989 352.406 229.814 353.76C230.64 355.113 232.452 356.421 232.452 356.421L229.516 359.265C229.516 359.265 228.828 357.567 228.415 356.099C228.002 354.631 228.071 353.072 228.278 352.613C228.507 352.177 229.356 351.856 229.356 351.856Z" fill="#2C5CFF"/>
<path d="M233.346 362.705C233.323 363.141 232.956 363.439 232.52 363.416C232.084 363.394 231.786 363.027 231.809 362.591C231.832 362.155 232.199 361.857 232.635 361.88C233.071 361.903 233.392 362.27 233.346 362.705Z" fill="#2C5CFF"/>
<path d="M232.749 370.963C232.727 371.399 232.36 371.697 231.924 371.674C231.488 371.651 231.19 371.284 231.213 370.849C231.236 370.413 231.603 370.115 232.038 370.137C232.474 370.16 232.795 370.527 232.749 370.963Z" fill="#2C5CFF"/>
<path d="M236.603 365.756C238.506 365.917 240.594 366.146 241.396 366.054V367.27C241.396 367.27 239.493 367.064 237.818 367.064C235.433 367.064 235.433 367.064 235.433 367.064L235.639 365.756C235.639 365.756 235.616 365.687 236.603 365.756Z" fill="#2C5CFF"/>
<path d="M254.975 378.739C254.975 378.739 252.842 377.569 251.122 376.789C249.402 376.009 246.902 377.408 246.902 377.408C246.902 377.408 246.604 376.606 246.168 375.596C245.732 374.541 245.182 373.257 244.677 372.316C244.402 371.766 244.15 371.353 243.943 371.146C243.072 370.229 243.163 369.151 242.911 368.623C242.911 368.6 242.888 368.577 242.888 368.554C242.705 367.866 243.186 365.068 243.714 362.522C244.264 359.884 244.998 355.778 244.998 355.778C245.251 356.008 246.122 356.214 246.581 356.765C246.581 356.765 249.7 361.49 251.007 364.747C253.393 370.665 253.783 371.88 254.173 374.059C254.608 376.216 254.975 378.739 254.975 378.739Z" fill="#6D9BFF"/>
<path d="M248.347 374.151C248.347 374.151 246.627 375.482 244.242 376.216C241.627 377.018 240.021 377.271 240.021 377.271C240.021 377.271 240.205 379.427 240.274 381.675C240.274 381.675 246.008 382.569 249.746 381.858C253.485 381.124 254.425 381.262 255.045 379.633C255.664 378.005 254.632 374.816 254.15 373.417C253.668 371.995 250.664 373.096 248.347 374.151Z" fill="#6D9BFF"/>
<path d="M239.333 377.248C239.952 378.074 239.929 379.312 240.09 381.033C240.204 382.225 239.791 382.202 239.791 382.202L242.934 382.111C242.934 382.111 243.278 380.299 242.796 378.624C242.292 376.95 242.291 376.95 242.291 376.95L239.333 377.248Z" fill="#2C5CFF"/>
</g>
<line x1="591.186" y1="429.327" x2="146.335" y2="429.327" stroke="black" stroke-width="1.11491"/>
<path d="M538 170C581 200.5 532 265.5 507 268" stroke="#323050" stroke-linecap="round" stroke-linejoin="round" stroke-dasharray="5 7"/>
<path d="M128 143.5C68.5 210.833 34.6002 329.8 75.0002 405C125.5 499 223 507 386 519.5" stroke="#18E1F7" stroke-linecap="round" stroke-linejoin="round" stroke-dasharray="5 7"/>
<path d="M496.5 142.5C482.833 136.333 464.7 127.4 461.5 109C458.3 90.6 493 58.5 468 46" stroke="#323050" stroke-linecap="round" stroke-linejoin="round" stroke-dasharray="5 7"/>
<path d="M34.5862 65.1513L87.5937 73.9601L52.8219 48.8161L50.865 56.6223L37.8967 58.7004L34.5862 65.1513Z" fill="#685ED6"/>
<path d="M87.5944 73.9596L43.8344 49.9159L0.532119 46.7699L87.5944 73.9596Z" fill="#79EFFC"/>
<path d="M52.8214 48.816L87.5932 73.96L61.0624 35.2659L52.8214 48.816Z" fill="#79EFFC"/>
<path d="M622.687 40.3616L593.628 52.5789L610.063 33.5119L612.239 37.7018L619.922 37.1288L622.687 40.3616Z" fill="#685ED6"/>
<path d="M593.627 52.5783L615.342 32.9201L639.629 25.2511L593.627 52.5783Z" fill="#79EFFC"/>
<path d="M610.064 33.5112L593.629 52.5782L603.523 26.8954L610.064 33.5112Z" fill="#79EFFC"/>
<path d="M334 89.4041C334 89.4041 330.5 90 327 89C327 89 327.5 91 331 91.3337C333.5 91 334 89.4041 334 89.4041Z" fill="white"/>
<path d="M426.199 535.664L466.306 518.953L432.689 517.917L434.277 523.572L426.062 530.283L426.199 535.664Z" fill="#685ED6"/>
<path d="M466.306 518.952L426.868 522.357L395.632 538.517L466.306 518.952Z" fill="#79EFFC"/>
<path d="M432.69 517.916L466.306 518.953L433.295 506.075L432.69 517.916Z" fill="#79EFFC"/>
<path d="M491.5 520.5C559 537 673.5 549.5 673.5 467.5C673.5 380.43 639 383 617 253" stroke="#18E1F7" stroke-linecap="round" stroke-linejoin="round" stroke-dasharray="5 7"/>
<defs>
<clipPath id="clip0_49_53913">
<rect width="180.913" height="108.36" fill="white" transform="translate(219.408 59.1592)"/>
</clipPath>
</defs>
</svg>
