<svg width="68" height="68" viewBox="0 0 68 68" fill="none" xmlns="http://www.w3.org/2000/svg">
<path d="M15.7584 28.6503L15.6496 28.4328L17.5027 27.5057L17.6115 27.7243C18.0062 28.5146 18.7996 29.0046 19.6832 29.0046C20.5668 29.0046 21.3602 28.5136 21.7549 27.7243L21.8636 27.5057L23.7168 28.4328L23.608 28.6513C22.8601 30.1471 21.3561 31.0762 19.6832 31.0762C18.0103 31.0762 16.5052 30.1471 15.7584 28.6503ZM0.00217836 52.8289V51.9236C0.00217836 48.8844 0.837067 45.9385 2.40326 43.352L0.412372 39.8685C0.000106684 39.1496 -0.106585 38.3116 0.111978 37.5088C0.33054 36.7081 0.848462 36.04 1.56941 35.6288C2.0345 35.3615 2.56692 35.2196 3.10971 35.2196C4.22427 35.2196 5.25804 35.8204 5.80911 36.7889L6.80974 38.5395C7.89012 37.7512 9.06476 37.0945 10.3036 36.588C8.01131 35.4527 6.23899 33.4369 5.42378 31.0162C2.94397 30.6329 1.03802 28.4835 1.03802 25.897V25.2186C1.03802 24.9182 1.06392 24.6188 1.11571 24.3288L2.88907 14.1257C4.31335 5.94153 11.3757 0.000976562 19.6832 0.000976562C27.9906 0.000976562 35.053 5.94153 36.4773 14.1257L38.2517 24.3308C38.3025 24.6188 38.3284 24.9182 38.3284 25.2186V25.897C38.3284 28.4835 36.4224 30.6329 33.9426 31.0151C33.1274 33.4369 31.3551 35.4527 29.0607 36.588C35.1701 39.103 39.3642 45.1513 39.3642 51.9236V52.8289C39.3642 56.8273 36.1106 60.0798 32.1133 60.0798H29.0058V64.2232H10.3606V60.0798H7.25308C3.25472 60.0798 0.00217836 56.8273 0.00217836 52.8289ZM11.3964 58.0081H16.5757V54.2936L15.5398 53.2578C14.9856 52.7046 14.0223 52.7036 13.4681 53.2578L12.8611 53.8648H11.3964C10.8247 53.8648 10.3606 54.3299 10.3606 54.9006V56.9723C10.3606 57.5431 10.8247 58.0081 11.3964 58.0081ZM7.91705 44.653L6.18927 45.8049L9.61169 51.7931H10.3606V48.929L7.91705 44.653ZM14.504 43.5064H12.4323V51.4471C13.7965 50.4796 15.7988 50.5884 17.0045 51.7921L17.4178 52.2064C17.7627 51.9505 18.1854 51.7931 18.6473 51.7931H26.9341V43.5064H24.8624C24.8624 44.6489 23.9332 45.578 22.7907 45.578H16.5757C15.4331 45.578 14.504 44.6489 14.504 43.5064ZM22.7907 21.7537C22.7907 23.4669 24.185 24.8612 25.8982 24.8612C27.6115 24.8612 29.0058 23.4669 29.0058 21.7537C29.0058 20.0404 27.6115 18.6461 25.8982 18.6461C24.185 18.6461 22.7907 20.0404 22.7907 21.7537ZM22.5079 17.8703C20.7221 17.1815 19.1124 16.0576 17.8529 14.5463L16.6368 13.0878C16.2898 12.6704 15.7791 12.4311 15.2363 12.4311C14.5402 12.4311 13.9146 12.8175 13.6038 13.44L13.1677 14.3142L11.6078 14.8342C10.862 15.0828 10.3606 15.7789 10.3606 16.5651V17.6372C11.2286 16.9795 12.2976 16.5745 13.4681 16.5745C15.9687 16.5745 18.0611 18.3571 18.5427 20.7178H20.8236C21.0536 19.5856 21.6689 18.6037 22.5079 17.8703ZM13.4681 18.6461C11.7548 18.6461 10.3606 20.0404 10.3606 21.7537C10.3606 23.4669 11.7548 24.8612 13.4681 24.8612C15.1814 24.8612 16.5757 23.4669 16.5757 21.7537C16.5757 20.0404 15.1814 18.6461 13.4681 18.6461ZM10.3606 26.0182C10.3606 28.5975 12.0045 30.8774 14.4511 31.6926C15.7221 32.1173 16.5757 33.3012 16.5757 34.6406V36.1291L16.8263 37.1318C17.1547 38.4463 18.3293 39.363 19.6832 39.363C21.037 39.363 22.2106 38.4463 22.54 37.1328L22.7907 36.1301V34.6416C22.7907 33.3023 23.6442 32.1173 24.9152 31.6936C27.3619 30.8784 29.0058 28.5985 29.0058 26.0193V25.8711C28.1377 26.5289 27.0687 26.9339 25.8982 26.9339C23.3977 26.9339 21.3053 25.1512 20.8236 22.7905H18.5427C18.0611 25.1512 15.9697 26.9339 13.4681 26.9339C12.2976 26.9339 11.2286 26.5289 10.3606 25.8711V26.0182ZM16.5757 41.4347V43.5064H22.7917L22.7907 41.4347H16.5757ZM26.9341 60.0798H19.6832H16.5757H12.4323V62.1515H26.9341V60.0798ZM25.8278 37.744L24.5879 37.4778L24.5485 37.6352C24.3704 38.3479 24.0337 38.9808 23.5997 39.5277C24.3414 39.8436 24.8624 40.5791 24.8624 41.4347H29.0058V51.7931H32.7534L34.0752 54.4376L32.2221 55.3647L31.4731 53.8648H18.6473V58.0081H19.6832H32.1133C34.9691 58.0081 37.2925 55.6847 37.2925 52.8289V51.9236C37.2925 45.1316 32.4707 39.1682 25.8278 37.744ZM11.586 34.914L13.3418 35.6671L14.5029 35.4185V34.6416C14.5029 34.1952 14.2191 33.7995 13.7944 33.6586C10.5004 32.5606 8.28788 29.4914 8.28788 26.0193V16.5641C8.28788 14.885 9.35791 13.3996 10.951 12.8682L11.6958 12.6206L11.7497 12.514C12.4147 11.185 13.7499 10.3594 15.2353 10.3594C16.3944 10.3594 17.4862 10.8701 18.2289 11.7619L19.4449 13.2204C20.6072 14.6157 22.1309 15.6122 23.8203 16.1404C23.5893 15.7023 23.4143 15.2279 23.3294 14.7151C23.1025 13.3561 22.0118 12.4311 20.719 12.4311V10.3594C23.0279 10.3594 24.9795 12.0126 25.3586 14.2904C25.5854 15.6494 26.6772 16.5745 27.9699 16.5745H30.0416H31.0775V26.0182C31.0775 29.4904 28.8639 32.5606 25.5709 33.6576C25.1473 33.7984 24.8624 34.1941 24.8624 34.6406V35.4175L26.0236 35.6661L27.7783 34.913C29.9422 33.9859 31.5736 32.0707 32.1444 29.7877L32.3391 29.0046H33.1481C34.8614 29.0046 36.2556 27.6103 36.2556 25.897V25.2186C36.2556 25.0414 36.2401 24.8643 36.2101 24.6882L34.4346 14.481C33.1854 7.29123 26.9807 2.07266 19.6832 2.07266C12.3857 2.07266 6.18098 7.29123 4.92968 14.481L3.15528 24.6861C3.12421 24.8643 3.10867 25.0414 3.10867 25.2186V25.897C3.10867 27.6103 4.50291 29.0046 6.2162 29.0046H7.02519L7.21993 29.7887C7.79171 32.0717 9.42317 33.988 11.586 34.914ZM7.85594 40.3698L10.3606 44.7525V41.4347H14.504C14.504 40.5791 15.025 39.8436 15.7667 39.5277C15.3326 38.9808 14.996 38.3479 14.8178 37.6352L14.7785 37.4778L13.5375 37.744C11.4721 38.1863 9.53504 39.103 7.85594 40.3698ZM2.20956 38.8399L5.15964 44.0025L6.88742 42.8507L4.00985 37.8144C3.73639 37.3348 3.07138 37.1546 2.598 37.427C2.35561 37.5658 2.18366 37.7875 2.11012 38.0547C2.03761 38.322 2.07283 38.6006 2.20956 38.8399ZM2.07386 52.8289C2.07386 55.6847 4.39726 58.0081 7.25308 58.0081H8.47951C8.3635 57.6829 8.28892 57.3369 8.28892 56.9723V54.9006C8.28892 54.536 8.3635 54.19 8.47951 53.8648H6.85738L6.10743 55.3636L4.25431 54.4366L5.57708 51.7931H7.22614L3.60484 45.4558C2.60421 47.4581 2.07386 49.6613 2.07386 51.9236V52.8289ZM60.6052 23.3975L55.7533 27.3027C55.2198 27.7315 54.5496 27.9687 53.866 27.9687C53.1823 27.9687 52.5111 27.7325 51.9787 27.3027L47.1268 23.3965C44.8262 21.5455 43.5076 18.7849 43.5076 15.8224C43.5076 14.9606 43.6215 14.1029 43.8473 13.2712L46.1417 4.80625L46.8989 4.77517C49.1726 4.68091 51.3706 4.1516 53.433 3.20277L53.866 3.00388L54.299 3.20277C56.3603 4.1516 58.5584 4.67988 60.8331 4.77517L61.5903 4.80625L63.8847 13.2701C64.1105 14.1029 64.2244 14.9606 64.2244 15.8214C64.2244 18.786 62.9048 21.5465 60.6052 23.3975ZM62.1527 15.8224C62.1527 15.144 62.0626 14.4675 61.8855 13.8129L59.9837 6.79921C58.2372 6.65937 56.5385 6.27404 54.9018 5.67636V17.6103H52.8301V5.67636C51.1935 6.27404 49.4937 6.65834 47.7483 6.79921L45.8465 13.8139C45.6694 14.4686 45.5793 15.145 45.5793 15.8224C45.5793 18.1541 46.6172 20.3273 48.4257 21.7827L52.8301 25.3284V19.682H54.9018V25.3284L59.3062 21.7837C61.1148 20.3283 62.1527 18.1551 62.1527 15.8224ZM59.3487 29.307L49.7226 38.9341L48.3833 37.5948L46.9186 39.0595L49.7226 41.8635L60.8134 30.7717L59.3487 29.307ZM59.3487 36.5579L49.7226 46.185L48.3833 44.8457L46.9186 46.3104L49.7226 49.1144L60.8134 38.0226L59.3487 36.5579ZM48.3833 52.0966L46.9186 53.5613L49.7226 56.3653L60.8134 45.2735L59.3487 43.8088L49.7226 53.4359L48.3833 52.0966Z" fill="#685ED6"/>
</svg>
