<svg width="348" height="222" viewBox="0 0 348 222" fill="none" xmlns="http://www.w3.org/2000/svg">
<g filter="url(#filter0_bd_8_148)">
<rect x="8" y="6" width="316" height="190" rx="20" fill="url(#paint0_linear_8_148)"/>
<rect x="263" y="148" width="45.3333" height="32" rx="4" fill="white" fill-opacity="0.1"/>
<path opacity="0.5" fill-rule="evenodd" clip-rule="evenodd" d="M285.905 170.439C284.327 171.77 282.279 172.573 280.041 172.573C275.048 172.573 271 168.574 271 163.64C271 158.706 275.048 154.707 280.041 154.707C282.279 154.707 284.327 155.51 285.905 156.841C287.484 155.51 289.532 154.707 291.77 154.707C296.763 154.707 300.811 158.706 300.811 163.64C300.811 168.574 296.763 172.573 291.77 172.573C289.532 172.573 287.484 171.77 285.905 170.439Z" fill="white"/>
<path opacity="0.5" fill-rule="evenodd" clip-rule="evenodd" d="M285.905 170.439C287.849 168.801 289.082 166.363 289.082 163.64C289.082 160.917 287.849 158.479 285.905 156.841C287.484 155.51 289.532 154.707 291.77 154.707C296.763 154.707 300.811 158.706 300.811 163.64C300.811 168.574 296.763 172.573 291.77 172.573C289.532 172.573 287.484 171.77 285.905 170.439Z" fill="white"/>
<path fill-rule="evenodd" clip-rule="evenodd" d="M285.905 170.439C287.849 168.801 289.082 166.363 289.082 163.64C289.082 160.917 287.849 158.479 285.905 156.841C283.961 158.479 282.729 160.917 282.729 163.64C282.729 166.363 283.961 168.801 285.905 170.439Z" fill="white"/>
<path d="M27.128 175V165.32L24.96 166.64V164.776L27.128 163.48H28.832V175H27.128ZM33.95 174.992L33.958 173.504L38.974 169.008C39.3793 168.651 39.654 168.309 39.798 167.984C39.9473 167.659 40.022 167.333 40.022 167.008C40.022 166.597 39.9313 166.229 39.75 165.904C39.5687 165.573 39.318 165.312 38.998 165.12C38.678 164.928 38.31 164.832 37.894 164.832C37.4673 164.832 37.086 164.933 36.75 165.136C36.4193 165.333 36.1607 165.597 35.974 165.928C35.7873 166.259 35.6967 166.616 35.702 167H33.99C33.99 166.253 34.158 165.6 34.494 165.04C34.8353 164.475 35.302 164.035 35.894 163.72C36.486 163.4 37.1633 163.24 37.926 163.24C38.6513 163.24 39.302 163.405 39.878 163.736C40.454 164.061 40.9073 164.509 41.238 165.08C41.574 165.651 41.742 166.301 41.742 167.032C41.742 167.56 41.6727 168.008 41.534 168.376C41.3953 168.744 41.1873 169.085 40.91 169.4C40.6327 169.715 40.286 170.056 39.87 170.424L35.998 173.88L35.814 173.4H41.742V174.992H33.95ZM49.2846 175.216C48.714 175.216 48.178 175.109 47.6766 174.896C47.1753 174.677 46.7406 174.368 46.3726 173.968C46.01 173.568 45.746 173.096 45.5806 172.552L47.1966 172.104C47.3513 172.6 47.6206 172.981 48.0046 173.248C48.3886 173.509 48.8153 173.637 49.2846 173.632C49.706 173.627 50.0766 173.528 50.3966 173.336C50.7166 173.144 50.9673 172.885 51.1486 172.56C51.33 172.229 51.4206 171.851 51.4206 171.424C51.4206 170.784 51.2206 170.256 50.8206 169.84C50.426 169.424 49.9086 169.216 49.2686 169.216C49.0873 169.216 48.9006 169.243 48.7086 169.296C48.522 169.349 48.346 169.419 48.1806 169.504L47.3966 168.184L51.4606 164.592L51.6366 165.072H46.0366V163.48H52.9646V165.072L49.5886 168.32L49.5726 167.776C50.298 167.776 50.9273 167.939 51.4606 168.264C51.994 168.584 52.4046 169.021 52.6926 169.576C52.986 170.125 53.1326 170.741 53.1326 171.424C53.1326 172.16 52.9593 172.813 52.6126 173.384C52.2713 173.955 51.81 174.403 51.2286 174.728C50.6526 175.053 50.0046 175.216 49.2846 175.216ZM62.4969 175V172.992H57.2969V171.408L61.0409 163.48H62.9529L59.2089 171.408H62.4969V168.288H64.1929V171.408H65.3369V172.992H64.1929V175H62.4969ZM77.2686 175V165.32L75.1006 166.64V164.776L77.2686 163.48H78.9726V175H77.2686ZM84.0906 174.992L84.0986 173.504L89.1146 169.008C89.52 168.651 89.7946 168.309 89.9386 167.984C90.088 167.659 90.1626 167.333 90.1626 167.008C90.1626 166.597 90.072 166.229 89.8906 165.904C89.7093 165.573 89.4586 165.312 89.1386 165.12C88.8186 164.928 88.4506 164.832 88.0346 164.832C87.608 164.832 87.2266 164.933 86.8906 165.136C86.56 165.333 86.3013 165.597 86.1146 165.928C85.928 166.259 85.8373 166.616 85.8426 167H84.1306C84.1306 166.253 84.2986 165.6 84.6346 165.04C84.976 164.475 85.4426 164.035 86.0346 163.72C86.6266 163.4 87.304 163.24 88.0666 163.24C88.792 163.24 89.4426 163.405 90.0186 163.736C90.5946 164.061 91.048 164.509 91.3786 165.08C91.7146 165.651 91.8826 166.301 91.8826 167.032C91.8826 167.56 91.8133 168.008 91.6746 168.376C91.536 168.744 91.328 169.085 91.0506 169.4C90.7733 169.715 90.4266 170.056 90.0106 170.424L86.1386 173.88L85.9546 173.4H91.8826V174.992H84.0906ZM99.4253 175.216C98.8546 175.216 98.3186 175.109 97.8173 174.896C97.3159 174.677 96.8813 174.368 96.5133 173.968C96.1506 173.568 95.8866 173.096 95.7213 172.552L97.3373 172.104C97.4919 172.6 97.7613 172.981 98.1453 173.248C98.5293 173.509 98.9559 173.637 99.4253 173.632C99.8466 173.627 100.217 173.528 100.537 173.336C100.857 173.144 101.108 172.885 101.289 172.56C101.471 172.229 101.561 171.851 101.561 171.424C101.561 170.784 101.361 170.256 100.961 169.84C100.567 169.424 100.049 169.216 99.4093 169.216C99.2279 169.216 99.0413 169.243 98.8493 169.296C98.6626 169.349 98.4866 169.419 98.3213 169.504L97.5373 168.184L101.601 164.592L101.777 165.072H96.1773V163.48H103.105V165.072L99.7293 168.32L99.7133 167.776C100.439 167.776 101.068 167.939 101.601 168.264C102.135 168.584 102.545 169.021 102.833 169.576C103.127 170.125 103.273 170.741 103.273 171.424C103.273 172.16 103.1 172.813 102.753 173.384C102.412 173.955 101.951 174.403 101.369 174.728C100.793 175.053 100.145 175.216 99.4253 175.216ZM112.637 175V172.992H107.437V171.408L111.181 163.48H113.093L109.349 171.408H112.637V168.288H114.333V171.408H115.477V172.992H114.333V175H112.637ZM127.409 175V165.32L125.241 166.64V164.776L127.409 163.48H129.113V175H127.409ZM134.231 174.992L134.239 173.504L139.255 169.008C139.661 168.651 139.935 168.309 140.079 167.984C140.229 167.659 140.303 167.333 140.303 167.008C140.303 166.597 140.213 166.229 140.031 165.904C139.85 165.573 139.599 165.312 139.279 165.12C138.959 164.928 138.591 164.832 138.175 164.832C137.749 164.832 137.367 164.933 137.031 165.136C136.701 165.333 136.442 165.597 136.255 165.928C136.069 166.259 135.978 166.616 135.983 167H134.271C134.271 166.253 134.439 165.6 134.775 165.04C135.117 164.475 135.583 164.035 136.175 163.72C136.767 163.4 137.445 163.24 138.207 163.24C138.933 163.24 139.583 163.405 140.159 163.736C140.735 164.061 141.189 164.509 141.519 165.08C141.855 165.651 142.023 166.301 142.023 167.032C142.023 167.56 141.954 168.008 141.815 168.376C141.677 168.744 141.469 169.085 141.191 169.4C140.914 169.715 140.567 170.056 140.151 170.424L136.279 173.88L136.095 173.4H142.023V174.992H134.231ZM149.566 175.216C148.995 175.216 148.459 175.109 147.958 174.896C147.457 174.677 147.022 174.368 146.654 173.968C146.291 173.568 146.027 173.096 145.862 172.552L147.478 172.104C147.633 172.6 147.902 172.981 148.286 173.248C148.67 173.509 149.097 173.637 149.566 173.632C149.987 173.627 150.358 173.528 150.678 173.336C150.998 173.144 151.249 172.885 151.43 172.56C151.611 172.229 151.702 171.851 151.702 171.424C151.702 170.784 151.502 170.256 151.102 169.84C150.707 169.424 150.19 169.216 149.55 169.216C149.369 169.216 149.182 169.243 148.99 169.296C148.803 169.349 148.627 169.419 148.462 169.504L147.678 168.184L151.742 164.592L151.918 165.072H146.318V163.48H153.246V165.072L149.87 168.32L149.854 167.776C150.579 167.776 151.209 167.939 151.742 168.264C152.275 168.584 152.686 169.021 152.974 169.576C153.267 170.125 153.414 170.741 153.414 171.424C153.414 172.16 153.241 172.813 152.894 173.384C152.553 173.955 152.091 174.403 151.51 174.728C150.934 175.053 150.286 175.216 149.566 175.216ZM162.778 175V172.992H157.578V171.408L161.322 163.48H163.234L159.49 171.408H162.778V168.288H164.474V171.408H165.618V172.992H164.474V175H162.778ZM177.55 175V165.32L175.382 166.64V164.776L177.55 163.48H179.254V175H177.55ZM184.372 174.992L184.38 173.504L189.396 169.008C189.801 168.651 190.076 168.309 190.22 167.984C190.369 167.659 190.444 167.333 190.444 167.008C190.444 166.597 190.353 166.229 190.172 165.904C189.991 165.573 189.74 165.312 189.42 165.12C189.1 164.928 188.732 164.832 188.316 164.832C187.889 164.832 187.508 164.933 187.172 165.136C186.841 165.333 186.583 165.597 186.396 165.928C186.209 166.259 186.119 166.616 186.124 167H184.412C184.412 166.253 184.58 165.6 184.916 165.04C185.257 164.475 185.724 164.035 186.316 163.72C186.908 163.4 187.585 163.24 188.348 163.24C189.073 163.24 189.724 163.405 190.3 163.736C190.876 164.061 191.329 164.509 191.66 165.08C191.996 165.651 192.164 166.301 192.164 167.032C192.164 167.56 192.095 168.008 191.956 168.376C191.817 168.744 191.609 169.085 191.332 169.4C191.055 169.715 190.708 170.056 190.292 170.424L186.42 173.88L186.236 173.4H192.164V174.992H184.372ZM199.707 175.216C199.136 175.216 198.6 175.109 198.099 174.896C197.597 174.677 197.163 174.368 196.795 173.968C196.432 173.568 196.168 173.096 196.003 172.552L197.619 172.104C197.773 172.6 198.043 172.981 198.427 173.248C198.811 173.509 199.237 173.637 199.707 173.632C200.128 173.627 200.499 173.528 200.819 173.336C201.139 173.144 201.389 172.885 201.571 172.56C201.752 172.229 201.843 171.851 201.843 171.424C201.843 170.784 201.643 170.256 201.243 169.84C200.848 169.424 200.331 169.216 199.691 169.216C199.509 169.216 199.323 169.243 199.131 169.296C198.944 169.349 198.768 169.419 198.603 169.504L197.819 168.184L201.883 164.592L202.059 165.072H196.459V163.48H203.387V165.072L200.011 168.32L199.995 167.776C200.72 167.776 201.349 167.939 201.883 168.264C202.416 168.584 202.827 169.021 203.115 169.576C203.408 170.125 203.555 170.741 203.555 171.424C203.555 172.16 203.381 172.813 203.035 173.384C202.693 173.955 202.232 174.403 201.651 174.728C201.075 175.053 200.427 175.216 199.707 175.216ZM212.919 175V172.992H207.719V171.408L211.463 163.48H213.375L209.631 171.408H212.919V168.288H214.615V171.408H215.759V172.992H214.615V175H212.919Z" fill="white"/>
<path d="M28.446 147.18C27.582 147.18 26.846 146.992 26.238 146.616C25.63 146.236 25.164 145.708 24.84 145.032C24.52 144.356 24.36 143.572 24.36 142.68C24.36 141.788 24.52 141.004 24.84 140.328C25.164 139.652 25.63 139.126 26.238 138.75C26.846 138.37 27.582 138.18 28.446 138.18C29.306 138.18 30.04 138.37 30.648 138.75C31.26 139.126 31.726 139.652 32.046 140.328C32.366 141.004 32.526 141.788 32.526 142.68C32.526 143.572 32.366 144.356 32.046 145.032C31.726 145.708 31.26 146.236 30.648 146.616C30.04 146.992 29.306 147.18 28.446 147.18ZM28.446 145.986C29.058 145.994 29.566 145.86 29.97 145.584C30.378 145.304 30.684 144.916 30.888 144.42C31.092 143.92 31.194 143.34 31.194 142.68C31.194 142.02 31.092 141.444 30.888 140.952C30.684 140.456 30.378 140.07 29.97 139.794C29.566 139.518 29.058 139.378 28.446 139.374C27.834 139.366 27.324 139.5 26.916 139.776C26.512 140.052 26.208 140.44 26.004 140.94C25.8 141.44 25.696 142.02 25.692 142.68C25.688 143.34 25.788 143.918 25.992 144.414C26.196 144.906 26.502 145.29 26.91 145.566C27.322 145.842 27.834 145.982 28.446 145.986ZM34.4428 147V138.36H35.6968V145.818H39.6088V147H34.4428ZM41.3475 147V138.36H42.6015V147H41.3475ZM47.0313 147L44.2233 138.36H45.5253L47.9193 145.734L50.3433 138.36H51.6453L48.8373 147H47.0313ZM53.2702 147V138.36H54.5242V147H53.2702ZM56.3259 147L59.1339 138.36H60.9399L63.7479 147H62.4459L59.8599 139.116H60.1839L57.6279 147H56.3259ZM57.7839 145.05V143.874H62.2959V145.05H57.7839ZM68.4267 147V138.36H71.9187C72.0027 138.36 72.1067 138.364 72.2307 138.372C72.3547 138.376 72.4727 138.388 72.5847 138.408C73.0647 138.484 73.4647 138.648 73.7847 138.9C74.1087 139.152 74.3507 139.47 74.5107 139.854C74.6707 140.238 74.7507 140.662 74.7507 141.126C74.7507 141.814 74.5747 142.408 74.2227 142.908C73.8707 143.404 73.3427 143.714 72.6387 143.838L72.1287 143.898H69.6807V147H68.4267ZM73.4787 147L71.7747 143.484L73.0407 143.16L74.9127 147H73.4787ZM69.6807 142.71H71.8707C71.9507 142.71 72.0387 142.706 72.1347 142.698C72.2347 142.69 72.3287 142.676 72.4167 142.656C72.6727 142.596 72.8787 142.486 73.0347 142.326C73.1907 142.162 73.3027 141.974 73.3707 141.762C73.4387 141.55 73.4727 141.338 73.4727 141.126C73.4727 140.914 73.4387 140.704 73.3707 140.496C73.3027 140.284 73.1907 140.098 73.0347 139.938C72.8787 139.774 72.6727 139.662 72.4167 139.602C72.3287 139.578 72.2347 139.562 72.1347 139.554C72.0387 139.546 71.9507 139.542 71.8707 139.542H69.6807V142.71ZM76.8314 147V138.36H78.0854V142.086H82.4054V138.36H83.6654V147H82.4054V143.268H78.0854V147H76.8314ZM88.0329 147V143.43L85.1109 138.36H86.5749L88.6689 141.99L90.7629 138.36H92.2269L89.3049 143.43V147H88.0329ZM93.6642 147V138.36H99.1842V139.542H94.9182V141.966H98.4642V143.148H94.9182V145.818H99.1842V147H93.6642Z" fill="white"/>
<path d="M184.245 147.18C183.657 147.18 183.137 147.052 182.685 146.796C182.233 146.536 181.877 146.18 181.617 145.728C181.361 145.276 181.233 144.756 181.233 144.168V141.192C181.233 140.604 181.361 140.084 181.617 139.632C181.877 139.18 182.233 138.826 182.685 138.57C183.137 138.31 183.657 138.18 184.245 138.18C184.833 138.18 185.353 138.31 185.805 138.57C186.257 138.826 186.611 139.18 186.867 139.632C187.127 140.084 187.257 140.604 187.257 141.192V144.168C187.257 144.756 187.127 145.276 186.867 145.728C186.611 146.18 186.257 146.536 185.805 146.796C185.353 147.052 184.833 147.18 184.245 147.18ZM184.245 145.98C184.565 145.98 184.855 145.904 185.115 145.752C185.379 145.596 185.589 145.388 185.745 145.128C185.901 144.864 185.979 144.57 185.979 144.246V141.102C185.979 140.782 185.901 140.492 185.745 140.232C185.589 139.968 185.379 139.76 185.115 139.608C184.855 139.452 184.565 139.374 184.245 139.374C183.925 139.374 183.633 139.452 183.369 139.608C183.109 139.76 182.901 139.968 182.745 140.232C182.589 140.492 182.511 140.782 182.511 141.102V144.246C182.511 144.57 182.589 144.864 182.745 145.128C182.901 145.388 183.109 145.596 183.369 145.752C183.633 145.904 183.925 145.98 184.245 145.98ZM192.502 147.18C191.942 147.18 191.438 147.048 190.99 146.784C190.542 146.516 190.186 146.15 189.922 145.686C189.662 145.222 189.532 144.694 189.532 144.102V141.348C189.532 140.72 189.662 140.168 189.922 139.692C190.186 139.216 190.55 138.846 191.014 138.582C191.482 138.318 192.02 138.186 192.628 138.186C193.084 138.186 193.512 138.272 193.912 138.444C194.312 138.616 194.658 138.872 194.95 139.212L194.032 140.07C193.868 139.858 193.662 139.69 193.414 139.566C193.17 139.438 192.908 139.374 192.628 139.374C192.268 139.374 191.952 139.46 191.68 139.632C191.408 139.8 191.194 140.022 191.038 140.298C190.886 140.574 190.81 140.87 190.81 141.186V142.77L190.564 142.494C190.812 142.17 191.12 141.914 191.488 141.726C191.856 141.538 192.25 141.444 192.67 141.444C193.206 141.444 193.684 141.57 194.104 141.822C194.528 142.07 194.86 142.408 195.1 142.836C195.344 143.264 195.466 143.746 195.466 144.282C195.466 144.822 195.33 145.312 195.058 145.752C194.79 146.188 194.43 146.536 193.978 146.796C193.53 147.052 193.038 147.18 192.502 147.18ZM192.502 145.974C192.814 145.974 193.098 145.898 193.354 145.746C193.61 145.594 193.814 145.39 193.966 145.134C194.118 144.878 194.194 144.594 194.194 144.282C194.194 143.97 194.118 143.686 193.966 143.43C193.818 143.174 193.616 142.97 193.36 142.818C193.104 142.666 192.82 142.59 192.508 142.59C192.196 142.59 191.91 142.666 191.65 142.818C191.394 142.97 191.19 143.174 191.038 143.43C190.886 143.686 190.81 143.97 190.81 144.282C190.81 144.59 190.886 144.872 191.038 145.128C191.19 145.384 191.394 145.59 191.65 145.746C191.906 145.898 192.19 145.974 192.502 145.974ZM199.769 138.36H201.035L198.731 147H197.465L199.769 138.36ZM202.961 146.994L202.967 145.878L206.729 142.506C207.033 142.238 207.239 141.982 207.347 141.738C207.459 141.494 207.515 141.25 207.515 141.006C207.515 140.698 207.447 140.422 207.311 140.178C207.175 139.93 206.987 139.734 206.747 139.59C206.507 139.446 206.231 139.374 205.919 139.374C205.599 139.374 205.313 139.45 205.061 139.602C204.813 139.75 204.619 139.948 204.479 140.196C204.339 140.444 204.271 140.712 204.275 141H202.991C202.991 140.44 203.117 139.95 203.369 139.53C203.625 139.106 203.975 138.776 204.419 138.54C204.863 138.3 205.371 138.18 205.943 138.18C206.487 138.18 206.975 138.304 207.407 138.552C207.839 138.796 208.179 139.132 208.427 139.56C208.679 139.988 208.805 140.476 208.805 141.024C208.805 141.42 208.753 141.756 208.649 142.032C208.545 142.308 208.389 142.564 208.181 142.8C207.973 143.036 207.713 143.292 207.401 143.568L204.497 146.16L204.359 145.8H208.805V146.994H202.961ZM214.27 147V145.494H210.37V144.306L213.178 138.36H214.612L211.804 144.306H214.27V141.966H215.542V144.306H216.4V145.494H215.542V147H214.27Z" fill="white"/>
<path d="M36.483 29.3636H38.5909V36.9659C38.5909 37.7992 38.3939 38.5322 38 39.1648C37.6098 39.7973 37.0606 40.2917 36.3523 40.6477C35.6439 41 34.8163 41.1761 33.8693 41.1761C32.9186 41.1761 32.089 41 31.3807 40.6477C30.6723 40.2917 30.1231 39.7973 29.733 39.1648C29.3428 38.5322 29.1477 37.7992 29.1477 36.9659V29.3636H31.2557V36.7898C31.2557 37.2746 31.3617 37.7064 31.5739 38.0852C31.7898 38.464 32.0928 38.7614 32.483 38.9773C32.8731 39.1894 33.3352 39.2955 33.8693 39.2955C34.4034 39.2955 34.8655 39.1894 35.2557 38.9773C35.6496 38.7614 35.9527 38.464 36.1648 38.0852C36.3769 37.7064 36.483 37.2746 36.483 36.7898V29.3636ZM42.848 35.8864V41H40.7912V32.2727H42.7571V33.7557H42.8594C43.0601 33.267 43.3802 32.8788 43.8196 32.5909C44.2628 32.303 44.8101 32.1591 45.4616 32.1591C46.0639 32.1591 46.5885 32.2879 47.0355 32.5455C47.4863 32.803 47.8348 33.1761 48.081 33.6648C48.331 34.1534 48.4541 34.7462 48.4503 35.4432V41H46.3935V35.7614C46.3935 35.178 46.242 34.7216 45.9389 34.392C45.6397 34.0625 45.2249 33.8977 44.6946 33.8977C44.3348 33.8977 44.0147 33.9773 43.7344 34.1364C43.4579 34.2917 43.2401 34.517 43.081 34.8125C42.9257 35.108 42.848 35.4659 42.848 35.8864ZM54.8991 32.2727V33.8636H49.8821V32.2727H54.8991ZM51.1207 30.1818H53.1776V38.375C53.1776 38.6515 53.2192 38.8636 53.3026 39.0114C53.3897 39.1553 53.5033 39.2538 53.6435 39.3068C53.7836 39.3598 53.9389 39.3864 54.1094 39.3864C54.2382 39.3864 54.3556 39.3769 54.4616 39.358C54.5715 39.339 54.6548 39.322 54.7116 39.3068L55.0582 40.9148C54.9484 40.9527 54.7912 40.9943 54.5866 41.0398C54.3859 41.0852 54.1397 41.1117 53.848 41.1193C53.3329 41.1345 52.8688 41.0568 52.456 40.8864C52.0431 40.7121 51.7154 40.4432 51.473 40.0795C51.2344 39.7159 51.117 39.2614 51.1207 38.7159V30.1818ZM56.6193 41V32.2727H58.6761V41H56.6193ZM57.6534 31.0341C57.3277 31.0341 57.0473 30.9261 56.8125 30.7102C56.5777 30.4905 56.4602 30.2273 56.4602 29.9205C56.4602 29.6098 56.5777 29.3466 56.8125 29.1307C57.0473 28.911 57.3277 28.8011 57.6534 28.8011C57.983 28.8011 58.2633 28.911 58.4943 29.1307C58.7292 29.3466 58.8466 29.6098 58.8466 29.9205C58.8466 30.2273 58.7292 30.4905 58.4943 30.7102C58.2633 30.9261 57.983 31.0341 57.6534 31.0341ZM65.1491 32.2727V33.8636H60.1321V32.2727H65.1491ZM61.3707 30.1818H63.4276V38.375C63.4276 38.6515 63.4692 38.8636 63.5526 39.0114C63.6397 39.1553 63.7533 39.2538 63.8935 39.3068C64.0336 39.3598 64.1889 39.3864 64.3594 39.3864C64.4882 39.3864 64.6056 39.3769 64.7116 39.358C64.8215 39.339 64.9048 39.322 64.9616 39.3068L65.3082 40.9148C65.1984 40.9527 65.0412 40.9943 64.8366 41.0398C64.6359 41.0852 64.3897 41.1117 64.098 41.1193C63.5829 41.1345 63.1188 41.0568 62.706 40.8864C62.2931 40.7121 61.9654 40.4432 61.723 40.0795C61.4844 39.7159 61.367 39.2614 61.3707 38.7159V30.1818ZM69.1136 29.3636V41H67.0568V29.3636H69.1136ZM75.0923 41.1705C74.2173 41.1705 73.4616 40.9886 72.8253 40.625C72.1927 40.2576 71.706 39.7386 71.3651 39.0682C71.0241 38.3939 70.8537 37.6004 70.8537 36.6875C70.8537 35.7898 71.0241 35.0019 71.3651 34.3239C71.7098 33.642 72.1908 33.1117 72.8082 32.733C73.4257 32.3504 74.151 32.1591 74.9844 32.1591C75.5223 32.1591 76.0298 32.2462 76.5071 32.4205C76.9882 32.5909 77.4124 32.8561 77.7798 33.2159C78.151 33.5758 78.4427 34.0341 78.6548 34.5909C78.867 35.1439 78.973 35.803 78.973 36.5682V37.1989H71.8196V35.8125H77.0014C76.9976 35.4186 76.9124 35.0682 76.7457 34.7614C76.5791 34.4508 76.3461 34.2064 76.0469 34.0284C75.7514 33.8504 75.4067 33.7614 75.0128 33.7614C74.5923 33.7614 74.223 33.8636 73.9048 34.0682C73.5866 34.2689 73.3385 34.5341 73.1605 34.8636C72.9863 35.1894 72.8973 35.5473 72.8935 35.9375V37.1477C72.8935 37.6553 72.9863 38.0909 73.1719 38.4545C73.3575 38.8144 73.617 39.0909 73.9503 39.2841C74.2836 39.4735 74.6738 39.5682 75.1207 39.5682C75.42 39.5682 75.6908 39.5265 75.9332 39.4432C76.1757 39.3561 76.3859 39.2292 76.5639 39.0625C76.742 38.8958 76.8764 38.6894 76.9673 38.4432L78.8878 38.6591C78.7666 39.1667 78.5355 39.6098 78.1946 39.9886C77.8575 40.3636 77.4257 40.6553 76.8991 40.8636C76.3726 41.0682 75.7704 41.1705 75.0923 41.1705ZM83.9517 41.1534C83.2661 41.1534 82.6525 40.9773 82.1108 40.625C81.5691 40.2727 81.1411 39.7614 80.8267 39.0909C80.5123 38.4205 80.3551 37.6061 80.3551 36.6477C80.3551 35.678 80.5142 34.8598 80.8324 34.1932C81.1544 33.5227 81.5881 33.017 82.1335 32.6761C82.679 32.3314 83.2869 32.1591 83.9574 32.1591C84.4688 32.1591 84.8892 32.2462 85.2188 32.4205C85.5483 32.5909 85.8097 32.7973 86.0028 33.0398C86.196 33.2784 86.3456 33.5038 86.4517 33.7159H86.5369V29.3636H88.5994V41H86.5767V39.625H86.4517C86.3456 39.8371 86.1922 40.0625 85.9915 40.3011C85.7907 40.536 85.5256 40.7367 85.196 40.9034C84.8665 41.0701 84.4517 41.1534 83.9517 41.1534ZM84.5256 39.4659C84.9612 39.4659 85.3324 39.3485 85.6392 39.1136C85.946 38.875 86.179 38.5436 86.3381 38.1193C86.4972 37.6951 86.5767 37.2008 86.5767 36.6364C86.5767 36.072 86.4972 35.5814 86.3381 35.1648C86.1828 34.7481 85.9517 34.4242 85.6449 34.1932C85.3419 33.9621 84.9688 33.8466 84.5256 33.8466C84.0672 33.8466 83.6847 33.9659 83.3778 34.2045C83.071 34.4432 82.84 34.7727 82.6847 35.1932C82.5294 35.6136 82.4517 36.0947 82.4517 36.6364C82.4517 37.1818 82.5294 37.6686 82.6847 38.0966C82.8438 38.5208 83.0767 38.8561 83.3835 39.1023C83.6941 39.3447 84.0748 39.4659 84.5256 39.4659ZM92.0582 41.125C91.7135 41.125 91.4181 41.0038 91.1719 40.7614C90.9257 40.5189 90.8045 40.2235 90.8082 39.875C90.8045 39.5341 90.9257 39.2424 91.1719 39C91.4181 38.7576 91.7135 38.6364 92.0582 38.6364C92.3916 38.6364 92.6813 38.7576 92.9276 39C93.1776 39.2424 93.3045 39.5341 93.3082 39.875C93.3045 40.1061 93.2438 40.3163 93.1264 40.5057C93.0128 40.6951 92.8613 40.8466 92.6719 40.9602C92.4863 41.0701 92.2817 41.125 92.0582 41.125Z" fill="white"/>
<g clip-path="url(#clip0_8_148)">
<path d="M299.143 27.2857C301.024 30.5433 302.014 34.2385 302.014 38C302.014 41.7615 301.024 45.4567 299.143 48.7143M294.429 29.6429C295.896 32.1838 296.668 35.066 296.668 38C296.668 40.934 295.896 43.8163 294.429 46.3571M289.929 31.8071C290.989 33.664 291.548 35.7702 291.548 37.9143C291.548 40.0583 290.989 42.1646 289.929 44.0214M285.429 34.1429C286.193 35.2998 286.598 36.6362 286.598 38C286.598 39.3638 286.193 40.7002 285.429 41.8571" stroke="white" stroke-width="2.57143" stroke-linecap="round"/>
</g>
<rect x="8.5" y="6.5" width="315" height="189" rx="19.5" stroke="url(#paint1_linear_8_148)"/>
</g>
<defs>
<filter id="filter0_bd_8_148" x="-4" y="-6" width="352" height="228" filterUnits="userSpaceOnUse" color-interpolation-filters="sRGB">
<feFlood flood-opacity="0" result="BackgroundImageFix"/>
<feGaussianBlur in="BackgroundImageFix" stdDeviation="6"/>
<feComposite in2="SourceAlpha" operator="in" result="effect1_backgroundBlur_8_148"/>
<feColorMatrix in="SourceAlpha" type="matrix" values="0 0 0 0 0 0 0 0 0 0 0 0 0 0 0 0 0 0 127 0" result="hardAlpha"/>
<feOffset dx="8" dy="10"/>
<feGaussianBlur stdDeviation="8"/>
<feColorMatrix type="matrix" values="0 0 0 0 0 0 0 0 0 0 0 0 0 0 0 0 0 0 0.05 0"/>
<feBlend mode="normal" in2="effect1_backgroundBlur_8_148" result="effect2_dropShadow_8_148"/>
<feBlend mode="normal" in="SourceGraphic" in2="effect2_dropShadow_8_148" result="shape"/>
</filter>
<linearGradient id="paint0_linear_8_148" x1="23.7873" y1="6.00002" x2="349.34" y2="234.824" gradientUnits="userSpaceOnUse">
<stop stop-color="white" stop-opacity="0.51"/>
<stop offset="1" stop-color="white" stop-opacity="0"/>
</linearGradient>
<linearGradient id="paint1_linear_8_148" x1="8" y1="14.023" x2="316.782" y2="207.518" gradientUnits="userSpaceOnUse">
<stop stop-color="white"/>
<stop offset="1" stop-color="white" stop-opacity="0.2"/>
</linearGradient>
<clipPath id="clip0_8_148">
<rect width="20" height="24" fill="white" transform="translate(284 26)"/>
</clipPath>
</defs>
</svg>
