<svg xmlns="http://www.w3.org/2000/svg" width="30" height="19" viewBox="0 0 30 19" fill="none">
  <path opacity="0.5" fill-rule="evenodd" clip-rule="evenodd" d="M14.9053 16.4392C13.3266 17.77 11.2787 18.5733 9.04092 18.5733C4.04776 18.5733 0 14.5737 0 9.63996C0 4.70622 4.04776 0.706627 9.04092 0.706627C11.2787 0.706627 13.3266 1.50996 14.9053 2.84068C16.484 1.50996 18.5319 0.706627 20.7697 0.706627C25.7629 0.706627 29.8106 4.70622 29.8106 9.63996C29.8106 14.5737 25.7629 18.5733 20.7697 18.5733C18.5319 18.5733 16.484 17.77 14.9053 16.4392Z" fill="white"/>
  <path opacity="0.5" fill-rule="evenodd" clip-rule="evenodd" d="M14.9053 16.4392C16.8492 14.8007 18.0818 12.3626 18.0818 9.63996C18.0818 6.91735 16.8492 4.47922 14.9053 2.84068C16.484 1.50996 18.5319 0.706627 20.7697 0.706627C25.7628 0.706627 29.8106 4.70622 29.8106 9.63996C29.8106 14.5737 25.7628 18.5733 20.7697 18.5733C18.5319 18.5733 16.484 17.77 14.9053 16.4392Z" fill="white"/>
  <path fill-rule="evenodd" clip-rule="evenodd" d="M14.9053 16.4392C16.8492 14.8007 18.0818 12.3626 18.0818 9.63998C18.0818 6.91739 16.8492 4.47927 14.9053 2.84073C12.9614 4.47927 11.7288 6.91739 11.7288 9.63998C11.7288 12.3626 12.9614 14.8007 14.9053 16.4392Z" fill="white"/>
</svg>