<svg width="30" height="19" viewBox="0 0 30 19" fill="none" xmlns="http://www.w3.org/2000/svg">
<path opacity="0.5" fill-rule="evenodd" clip-rule="evenodd" d="M14.9053 16.4393C13.3266 17.77 11.2787 18.5733 9.04092 18.5733C4.04776 18.5733 0 14.5737 0 9.64C0 4.70625 4.04776 0.706665 9.04092 0.706665C11.2787 0.706665 13.3266 1.51 14.9053 2.84072C16.484 1.51 18.5319 0.706665 20.7697 0.706665C25.7629 0.706665 29.8106 4.70625 29.8106 9.64C29.8106 14.5737 25.7629 18.5733 20.7697 18.5733C18.5319 18.5733 16.484 17.77 14.9053 16.4393Z" fill="white"/>
<path opacity="0.5" fill-rule="evenodd" clip-rule="evenodd" d="M14.9053 16.4393C16.8492 14.8007 18.0818 12.3626 18.0818 9.64C18.0818 6.91739 16.8492 4.47925 14.9053 2.84072C16.484 1.50999 18.5319 0.706665 20.7697 0.706665C25.7628 0.706665 29.8106 4.70625 29.8106 9.64C29.8106 14.5737 25.7628 18.5733 20.7697 18.5733C18.5319 18.5733 16.484 17.77 14.9053 16.4393Z" fill="white"/>
<path fill-rule="evenodd" clip-rule="evenodd" d="M14.9053 16.4393C16.8492 14.8008 18.0818 12.3627 18.0818 9.64007C18.0818 6.91748 16.8492 4.47936 14.9053 2.84082C12.9614 4.47936 11.7288 6.91748 11.7288 9.64007C11.7288 12.3627 12.9614 14.8008 14.9053 16.4393Z" fill="white"/>
</svg>
