<svg width="86" height="21" viewBox="0 0 86 21" fill="none" xmlns="http://www.w3.org/2000/svg">
    <path d="M15.8327 10.5H4.16602M4.16602 10.5L9.99935 16.3333M4.16602 10.5L9.99935 4.66663" stroke="#667085" stroke-width="1.67" stroke-linecap="round" stroke-linejoin="round"/>
    <path d="M29.1186 15.5V5.31818H32.7479C33.54 5.31818 34.1963 5.46236 34.7166 5.75071C35.237 6.03906 35.6264 6.43347 35.8849 6.93395C36.1435 7.43111 36.2727 7.99124 36.2727 8.61435C36.2727 9.24077 36.1418 9.80421 35.88 10.3047C35.6214 10.8018 35.2304 11.1963 34.7067 11.4879C34.1863 11.7763 33.5317 11.9205 32.7429 11.9205H30.2472V10.6179H32.6037C33.1042 10.6179 33.5102 10.5317 33.8217 10.3594C34.1333 10.1837 34.362 9.94508 34.5078 9.64347C34.6536 9.34186 34.7266 8.99882 34.7266 8.61435C34.7266 8.22988 34.6536 7.88849 34.5078 7.5902C34.362 7.2919 34.1316 7.05824 33.8168 6.8892C33.5052 6.72017 33.0942 6.63565 32.5838 6.63565H30.6548V15.5H29.1186ZM37.9544 15.5V7.86364H39.3912V9.0767H39.4707C39.6099 8.66572 39.8552 8.34257 40.2065 8.10724C40.5611 7.86861 40.9622 7.74929 41.4096 7.74929C41.5024 7.74929 41.6118 7.7526 41.7377 7.75923C41.867 7.76586 41.9681 7.77415 42.041 7.78409V9.20597C41.9814 9.18939 41.8753 9.17116 41.7228 9.15128C41.5704 9.12808 41.4179 9.11648 41.2654 9.11648C40.9141 9.11648 40.6009 9.19105 40.3258 9.3402C40.054 9.48603 39.8386 9.68987 39.6795 9.9517C39.5204 10.2102 39.4409 10.5052 39.4409 10.8366V15.5H37.9544ZM46.3452 15.6541C45.5928 15.6541 44.9448 15.4934 44.4013 15.1719C43.861 14.8471 43.4434 14.3913 43.1484 13.8047C42.8568 13.2147 42.7109 12.5237 42.7109 11.7315C42.7109 10.9493 42.8568 10.2599 43.1484 9.66335C43.4434 9.06676 43.8544 8.60109 44.3814 8.26633C44.9117 7.93158 45.5315 7.7642 46.2408 7.7642C46.6716 7.7642 47.0893 7.83546 47.4936 7.97798C47.898 8.1205 48.2609 8.34422 48.5824 8.64915C48.9039 8.95407 49.1574 9.35014 49.343 9.83736C49.5286 10.3213 49.6214 10.9096 49.6214 11.6023V12.1293H43.5511V11.0156H48.1648C48.1648 10.6245 48.0852 10.2782 47.9261 9.97656C47.767 9.67164 47.5433 9.43134 47.255 9.25568C46.9699 9.08002 46.6352 8.99219 46.2507 8.99219C45.8331 8.99219 45.4685 9.09493 45.157 9.30043C44.8487 9.5026 44.6101 9.76776 44.4411 10.0959C44.2753 10.4207 44.1925 10.7737 44.1925 11.1548V12.0249C44.1925 12.5353 44.282 12.9695 44.4609 13.3274C44.6432 13.6854 44.8968 13.9588 45.2216 14.1477C45.5464 14.3333 45.9259 14.4261 46.3601 14.4261C46.6418 14.4261 46.8987 14.3864 47.1307 14.3068C47.3627 14.224 47.5632 14.1013 47.7322 13.9389C47.9013 13.7765 48.0305 13.576 48.12 13.3374L49.527 13.5909C49.4143 14.0052 49.2121 14.3681 48.9205 14.6797C48.6321 14.9879 48.2692 15.2282 47.8317 15.4006C47.3975 15.5696 46.902 15.6541 46.3452 15.6541ZM57.5847 7.86364L54.8155 15.5H53.2246L50.4505 7.86364H52.0463L53.9803 13.7401H54.0598L55.9888 7.86364H57.5847ZM58.9817 15.5V7.86364H60.4682V15.5H58.9817ZM59.7324 6.68537C59.4739 6.68537 59.2518 6.59919 59.0662 6.42685C58.8839 6.25118 58.7928 6.04238 58.7928 5.80043C58.7928 5.55516 58.8839 5.34635 59.0662 5.17401C59.2518 4.99834 59.4739 4.91051 59.7324 4.91051C59.9909 4.91051 60.2114 4.99834 60.3936 5.17401C60.5792 5.34635 60.6721 5.55516 60.6721 5.80043C60.6721 6.04238 60.5792 6.25118 60.3936 6.42685C60.2114 6.59919 59.9909 6.68537 59.7324 6.68537ZM65.6847 15.6541C64.9688 15.6541 64.344 15.4901 63.8104 15.1619C63.2768 14.8338 62.8625 14.3748 62.5675 13.7848C62.2725 13.1948 62.125 12.5054 62.125 11.7166C62.125 10.9245 62.2725 10.2318 62.5675 9.63849C62.8625 9.04522 63.2768 8.58452 63.8104 8.25639C64.344 7.92827 64.9688 7.7642 65.6847 7.7642C66.4006 7.7642 67.0253 7.92827 67.5589 8.25639C68.0926 8.58452 68.5069 9.04522 68.8018 9.63849C69.0968 10.2318 69.2443 10.9245 69.2443 11.7166C69.2443 12.5054 69.0968 13.1948 68.8018 13.7848C68.5069 14.3748 68.0926 14.8338 67.5589 15.1619C67.0253 15.4901 66.4006 15.6541 65.6847 15.6541ZM65.6896 14.4062C66.1536 14.4062 66.5381 14.2836 66.843 14.0384C67.148 13.7931 67.3733 13.4666 67.5192 13.0589C67.6683 12.6513 67.7429 12.2022 67.7429 11.7116C67.7429 11.2244 67.6683 10.777 67.5192 10.3693C67.3733 9.95833 67.148 9.62855 66.843 9.37997C66.5381 9.13139 66.1536 9.0071 65.6896 9.0071C65.2223 9.0071 64.8345 9.13139 64.5263 9.37997C64.2214 9.62855 63.9943 9.95833 63.8452 10.3693C63.6993 10.777 63.6264 11.2244 63.6264 11.7116C63.6264 12.2022 63.6993 12.6513 63.8452 13.0589C63.9943 13.4666 64.2214 13.7931 64.5263 14.0384C64.8345 14.2836 65.2223 14.4062 65.6896 14.4062ZM75.7409 12.3331V7.86364H77.2324V15.5H75.7708V14.1776H75.6912C75.5156 14.5852 75.2338 14.925 74.8461 15.1967C74.4616 15.4652 73.9827 15.5994 73.4093 15.5994C72.9187 15.5994 72.4846 15.4917 72.1067 15.2763C71.7322 15.0575 71.4372 14.7344 71.2218 14.3068C71.0096 13.8793 70.9036 13.3506 70.9036 12.7209V7.86364H72.3901V12.5419C72.3901 13.0623 72.5343 13.4766 72.8226 13.7848C73.111 14.093 73.4855 14.2472 73.9462 14.2472C74.2246 14.2472 74.5014 14.1776 74.7765 14.0384C75.0549 13.8991 75.2852 13.6887 75.4675 13.407C75.6531 13.1252 75.7443 12.7673 75.7409 12.3331ZM84.9521 9.72798L83.6048 9.96662C83.5484 9.79427 83.4589 9.63021 83.3363 9.47443C83.217 9.31865 83.0546 9.19105 82.8491 9.09162C82.6436 8.99219 82.3867 8.94247 82.0785 8.94247C81.6576 8.94247 81.3062 9.03693 81.0245 9.22585C80.7428 9.41146 80.6019 9.65175 80.6019 9.94673C80.6019 10.2019 80.6964 10.4074 80.8853 10.5632C81.0742 10.719 81.3791 10.8466 81.8001 10.946L83.0131 11.2244C83.7158 11.3868 84.2395 11.6371 84.5842 11.9751C84.9289 12.3132 85.1012 12.7524 85.1012 13.2926C85.1012 13.75 84.9686 14.1577 84.7035 14.5156C84.4416 14.8703 84.0754 15.1487 83.6048 15.3509C83.1374 15.553 82.5955 15.6541 81.979 15.6541C81.1239 15.6541 80.4263 15.4718 79.886 15.1072C79.3458 14.7393 79.0143 14.2173 78.8917 13.5412L80.3285 13.3224C80.418 13.697 80.6019 13.9804 80.8803 14.1726C81.1587 14.3615 81.5217 14.456 81.9691 14.456C82.4563 14.456 82.8458 14.3549 83.1374 14.1527C83.4291 13.9472 83.5749 13.697 83.5749 13.402C83.5749 13.1634 83.4854 12.9628 83.3065 12.8004C83.1308 12.638 82.8607 12.5154 82.4961 12.4325L81.2035 12.1491C80.4909 11.9867 79.9639 11.7282 79.6225 11.3736C79.2844 11.0189 79.1154 10.5698 79.1154 10.0263C79.1154 9.57552 79.2414 9.18111 79.4933 8.84304C79.7451 8.50497 80.0932 8.24148 80.5373 8.05256C80.9814 7.86032 81.4902 7.7642 82.0636 7.7642C82.8888 7.7642 83.5385 7.94318 84.0124 8.30114C84.4864 8.65578 84.7996 9.13139 84.9521 9.72798Z" fill="#667085"/>
</svg>
