<svg width="60" height="21" viewBox="0 0 60 21" fill="none" xmlns="http://www.w3.org/2000/svg">
    <path d="M9.33665 5.31818V15.5H7.92472L2.74929 8.03267H2.65483V15.5H1.11861V5.31818H2.54048L7.72088 12.7955H7.81534V5.31818H9.33665ZM14.7495 15.6541C13.9971 15.6541 13.3491 15.4934 12.8056 15.1719C12.2653 14.8471 11.8477 14.3913 11.5527 13.8047C11.2611 13.2147 11.1152 12.5237 11.1152 11.7315C11.1152 10.9493 11.2611 10.2599 11.5527 9.66335C11.8477 9.06676 12.2587 8.60109 12.7857 8.26633C13.316 7.93158 13.9358 7.7642 14.6451 7.7642C15.0759 7.7642 15.4935 7.83546 15.8979 7.97798C16.3023 8.1205 16.6652 8.34422 16.9867 8.64915C17.3082 8.95407 17.5617 9.35014 17.7473 9.83736C17.9329 10.3213 18.0257 10.9096 18.0257 11.6023V12.1293H11.9554V11.0156H16.5691C16.5691 10.6245 16.4895 10.2782 16.3304 9.97656C16.1713 9.67164 15.9476 9.43134 15.6593 9.25568C15.3742 9.08002 15.0395 8.99219 14.655 8.99219C14.2374 8.99219 13.8728 9.09493 13.5613 9.30043C13.253 9.5026 13.0144 9.76776 12.8453 10.0959C12.6796 10.4207 12.5968 10.7737 12.5968 11.1548V12.0249C12.5968 12.5353 12.6863 12.9695 12.8652 13.3274C13.0475 13.6854 13.3011 13.9588 13.6259 14.1477C13.9507 14.3333 14.3302 14.4261 14.7644 14.4261C15.0461 14.4261 15.303 14.3864 15.535 14.3068C15.767 14.224 15.9675 14.1013 16.1365 13.9389C16.3056 13.7765 16.4348 13.576 16.5243 13.3374L17.9313 13.5909C17.8186 14.0052 17.6164 14.3681 17.3248 14.6797C17.0364 14.9879 16.6735 15.2282 16.236 15.4006C15.8018 15.5696 15.3063 15.6541 14.7495 15.6541ZM20.6706 7.86364L22.356 10.8366L24.0563 7.86364H25.682L23.3006 11.6818L25.7019 15.5H24.0762L22.356 12.6463L20.6408 15.5H19.0101L21.3865 11.6818L19.04 7.86364H20.6706ZM30.7729 7.86364V9.05682H26.6017V7.86364H30.7729ZM27.7203 6.03409H29.2069V13.2578C29.2069 13.5462 29.2499 13.7633 29.3361 13.9091C29.4223 14.0516 29.5333 14.1494 29.6692 14.2024C29.8084 14.2521 29.9592 14.277 30.1216 14.277C30.2409 14.277 30.3453 14.2687 30.4348 14.2521C30.5243 14.2356 30.5939 14.2223 30.6436 14.2124L30.9121 15.4403C30.8259 15.4735 30.7033 15.5066 30.5442 15.5398C30.3851 15.5762 30.1863 15.5961 29.9476 15.5994C29.5565 15.6061 29.1919 15.5365 28.8539 15.3906C28.5158 15.2448 28.2424 15.0194 28.0336 14.7145C27.8248 14.4096 27.7203 14.0268 27.7203 13.5661V6.03409Z" fill="#667085"/>
    <path d="M44.166 10.5H55.8327M55.8327 10.5L49.9993 4.66663M55.8327 10.5L49.9993 16.3333" stroke="#667085" stroke-width="1.67" stroke-linecap="round" stroke-linejoin="round"/>
</svg>
